<svg xmlns="http://www.w3.org/2000/svg" viewBox="0 0 1200 420" role="img" aria-labelledby="title desc">
<title id="title">海龟汤调查局 · Turtle Soup Investigation Bureau</title>
<desc id="desc">每一碗怪事，都等你来问。原创故事、单人推理与朋友同桌。右侧是一张等待解答的纸面案卷。</desc>
<!-- Static artwork. Lettering outlined from the project's OFL-licensed Noto Serif SC and JetBrains Mono fonts. -->
<rect width="1200" height="420" fill="#14130f"/>
<path d="M56 37h44M56 342h1088" stroke="#e0736a" stroke-width="2"/>
<path d="M653 62v237" stroke="#49453b"/>

<path fill="#a8a191" d="M59.31 73V64.58H56.72V63.51H63.09V64.58H60.48V73ZM68.2 73.13Q66.87 73.13 66.17 72.4Q65.47 71.66 65.47 70.4V63.51H66.64V70.4Q66.64 71.18 67.02 71.64Q67.41 72.09 68.2 72.09Q68.98 72.09 69.37 71.64Q69.76 71.18 69.76 70.4V63.51H70.93V70.4Q70.93 71.67 70.23 72.4Q69.54 73.13 68.2 73.13ZM73.81 73V63.51H76.73Q77.58 63.51 78.22 63.85Q78.85 64.2 79.2 64.81Q79.55 65.42 79.55 66.24Q79.55 67.2 79.06 67.89Q78.57 68.58 77.75 68.85L79.68 73H78.4L76.54 68.97H74.97V73ZM74.97 67.92H76.73Q77.46 67.92 77.9 67.46Q78.35 66.99 78.35 66.24Q78.35 65.47 77.9 65.02Q77.46 64.56 76.73 64.56H74.97ZM84.21 73V64.58H81.61V63.51H87.98V64.58H85.38V73ZM90.89 73V63.51H92.06V71.93H96.35V73ZM98.8 73V63.51H104.26V64.58H99.96V67.51H103.8V68.55H99.96V71.93H104.26V73ZM118.05 73.13Q116.67 73.13 115.85 72.4Q115.04 71.67 115.04 70.4H116.21Q116.21 71.19 116.71 71.64Q117.22 72.09 118.05 72.09Q118.86 72.09 119.34 71.62Q119.82 71.15 119.82 70.4Q119.82 69.83 119.51 69.41Q119.21 68.98 118.64 68.83L117.19 68.42Q116.3 68.16 115.78 67.49Q115.27 66.83 115.27 65.92Q115.27 65.16 115.61 64.59Q115.95 64.02 116.56 63.7Q117.17 63.38 117.96 63.38Q118.77 63.38 119.38 63.7Q120 64.02 120.35 64.58Q120.7 65.15 120.7 65.89H119.53Q119.53 65.24 119.09 64.83Q118.65 64.42 117.96 64.42Q117.27 64.42 116.84 64.83Q116.41 65.24 116.41 65.89Q116.41 66.41 116.69 66.78Q116.97 67.15 117.48 67.29L118.96 67.71Q119.91 67.97 120.44 68.69Q120.96 69.41 120.96 70.4Q120.96 71.65 120.17 72.39Q119.38 73.13 118.05 73.13ZM126.3 73.13Q125.03 73.13 124.28 72.39Q123.54 71.65 123.54 70.27V66.24Q123.54 64.86 124.28 64.12Q125.03 63.38 126.3 63.38Q127.57 63.38 128.31 64.12Q129.06 64.86 129.06 66.23V70.27Q129.06 71.65 128.31 72.39Q127.57 73.13 126.3 73.13ZM126.3 72.08Q127.07 72.08 127.48 71.64Q127.89 71.21 127.89 70.4V66.11Q127.89 65.3 127.48 64.87Q127.07 64.43 126.3 64.43Q125.55 64.43 125.13 64.87Q124.71 65.3 124.71 66.11V70.4Q124.71 71.21 125.13 71.64Q125.55 72.08 126.3 72.08ZM134.6 73.13Q133.27 73.13 132.57 72.4Q131.87 71.66 131.87 70.4V63.51H133.04V70.4Q133.04 71.18 133.42 71.64Q133.81 72.09 134.6 72.09Q135.38 72.09 135.77 71.64Q136.16 71.18 136.16 70.4V63.51H137.33V70.4Q137.33 71.67 136.63 72.4Q135.94 73.13 134.6 73.13ZM140.2 73V63.51H143.25Q144.58 63.51 145.36 64.27Q146.15 65.03 146.15 66.31Q146.15 67.58 145.36 68.34Q144.58 69.1 143.25 69.1H141.37V73ZM141.37 68.05H143.25Q144.02 68.05 144.48 67.57Q144.94 67.1 144.94 66.31Q144.94 65.5 144.48 65.03Q144.02 64.56 143.25 64.56H141.37ZM156.58 74.43 161.19 62.21H162.43L157.81 74.43ZM173.57 73V71.93H175.5V64.58H173.57V63.51H178.64V64.58H176.7V71.93H178.64V73ZM181.67 73V63.51H183.23L186.13 71.64Q186.1 71.31 186.07 70.84Q186.04 70.36 186.02 69.83Q186 69.31 186 68.84V63.51H187.13V73H185.57L182.68 64.88Q182.71 65.19 182.74 65.66Q182.76 66.14 182.78 66.66Q182.8 67.19 182.8 67.67V73ZM191.89 73 189.45 63.51H190.65L192.27 69.97Q192.44 70.65 192.55 71.22Q192.66 71.79 192.71 72.09Q192.77 71.79 192.89 71.21Q193.01 70.63 193.18 69.96L194.74 63.51H195.95L193.49 73ZM198.4 73V63.51H203.86V64.58H199.56V67.51H203.41V68.55H199.56V71.93H203.86V73ZM209.35 73.13Q207.97 73.13 207.16 72.4Q206.34 71.67 206.34 70.4H207.51Q207.51 71.19 208.01 71.64Q208.52 72.09 209.35 72.09Q210.16 72.09 210.64 71.62Q211.12 71.15 211.12 70.4Q211.12 69.83 210.81 69.41Q210.51 68.98 209.94 68.83L208.49 68.42Q207.6 68.16 207.08 67.49Q206.57 66.83 206.57 65.92Q206.57 65.16 206.91 64.59Q207.25 64.02 207.86 63.7Q208.47 63.38 209.26 63.38Q210.07 63.38 210.68 63.7Q211.3 64.02 211.65 64.58Q212 65.15 212 65.89H210.83Q210.83 65.24 210.39 64.83Q209.95 64.42 209.26 64.42Q208.57 64.42 208.14 64.83Q207.71 65.24 207.71 65.89Q207.71 66.41 207.99 66.78Q208.27 67.15 208.78 67.29L210.26 67.71Q211.21 67.97 211.74 68.69Q212.26 69.41 212.26 70.4Q212.26 71.65 211.47 72.39Q210.68 73.13 209.35 73.13ZM217.02 73V64.58H214.42V63.51H220.79V64.58H218.19V73ZM223.37 73V71.93H225.3V64.58H223.37V63.51H228.44V64.58H226.5V71.93H228.44V73ZM234.25 73.13Q232.95 73.13 232.2 72.4Q231.44 71.67 231.44 70.4V66.11Q231.44 64.84 232.2 64.11Q232.95 63.38 234.25 63.38Q235.53 63.38 236.28 64.11Q237.03 64.85 237.03 66.11H235.86Q235.86 65.3 235.44 64.87Q235.02 64.43 234.25 64.43Q233.49 64.43 233.05 64.86Q232.61 65.29 232.61 66.1V70.4Q232.61 71.21 233.05 71.65Q233.49 72.09 234.25 72.09Q235.02 72.09 235.44 71.65Q235.86 71.21 235.86 70.4V69.1H233.94V68.03H237.03V70.4Q237.03 71.66 236.28 72.4Q235.53 73.13 234.25 73.13ZM239.25 73 241.72 63.51H243.29L245.75 73H244.57L243.94 70.48H241.07L240.45 73ZM241.3 69.49H243.7L242.97 66.56Q242.76 65.73 242.64 65.17Q242.53 64.61 242.5 64.45Q242.47 64.61 242.36 65.17Q242.24 65.73 242.03 66.55ZM250.22 73V64.58H247.62V63.51H253.99V64.58H251.39V73ZM256.57 73V71.93H258.5V64.58H256.57V63.51H261.64V64.58H259.7V71.93H261.64V73ZM267.4 73.13Q266.13 73.13 265.39 72.39Q264.64 71.65 264.64 70.27V66.24Q264.64 64.86 265.39 64.12Q266.13 63.38 267.4 63.38Q268.67 63.38 269.42 64.12Q270.16 64.86 270.16 66.23V70.27Q270.16 71.65 269.42 72.39Q268.67 73.13 267.4 73.13ZM267.4 72.08Q268.17 72.08 268.58 71.64Q268.99 71.21 268.99 70.4V66.11Q268.99 65.3 268.58 64.87Q268.17 64.43 267.4 64.43Q266.65 64.43 266.23 64.87Q265.81 65.3 265.81 66.11V70.4Q265.81 71.21 266.23 71.64Q266.65 72.08 267.4 72.08ZM272.97 73V63.51H274.53L277.43 71.64Q277.4 71.31 277.37 70.84Q277.34 70.36 277.32 69.83Q277.3 69.31 277.3 68.84V63.51H278.43V73H276.87L273.98 64.88Q274.01 65.19 274.04 65.66Q274.06 66.14 274.08 66.66Q274.1 67.19 274.1 67.67V73ZM289.61 73V63.51H292.3Q293.6 63.51 294.33 64.16Q295.07 64.81 295.07 65.97Q295.07 66.69 294.61 67.28Q294.15 67.86 293.41 68.01V68.05Q293.96 68.11 294.39 68.44Q294.81 68.76 295.05 69.26Q295.29 69.76 295.29 70.36Q295.29 71.58 294.54 72.29Q293.8 73 292.5 73ZM290.75 67.55H292.29Q293.04 67.55 293.48 67.15Q293.91 66.75 293.91 66.06Q293.91 65.37 293.48 64.97Q293.05 64.56 292.3 64.56H290.75ZM290.75 71.95H292.37Q293.18 71.95 293.66 71.51Q294.13 71.08 294.13 70.32Q294.13 69.54 293.66 69.05Q293.18 68.57 292.37 68.57H290.75ZM300.6 73.13Q299.27 73.13 298.57 72.4Q297.87 71.66 297.87 70.4V63.51H299.04V70.4Q299.04 71.18 299.42 71.64Q299.81 72.09 300.6 72.09Q301.38 72.09 301.77 71.64Q302.16 71.18 302.16 70.4V63.51H303.33V70.4Q303.33 71.67 302.63 72.4Q301.94 73.13 300.6 73.13ZM306.21 73V63.51H309.13Q309.98 63.51 310.62 63.85Q311.25 64.2 311.6 64.81Q311.96 65.42 311.96 66.24Q311.96 67.2 311.46 67.89Q310.97 68.58 310.15 68.85L312.09 73H310.8L308.94 68.97H307.37V73ZM307.37 67.92H309.13Q309.86 67.92 310.3 67.46Q310.75 66.99 310.75 66.24Q310.75 65.47 310.3 65.02Q309.86 64.56 309.13 64.56H307.37ZM314.6 73V63.51H320.06V64.58H315.76V67.51H319.61V68.55H315.76V71.93H320.06V73ZM322.25 73 324.72 63.51H326.29L328.75 73H327.57L326.94 70.48H324.07L323.45 73ZM324.3 69.49H326.7L325.97 66.56Q325.76 65.73 325.64 65.17Q325.53 64.61 325.5 64.45Q325.47 64.61 325.36 65.17Q325.24 65.73 325.03 66.55ZM333.8 73.13Q332.47 73.13 331.77 72.4Q331.07 71.66 331.07 70.4V63.51H332.24V70.4Q332.24 71.18 332.62 71.64Q333.01 72.09 333.8 72.09Q334.58 72.09 334.97 71.64Q335.36 71.18 335.36 70.4V63.51H336.53V70.4Q336.53 71.67 335.83 72.4Q335.14 73.13 333.8 73.13Z"/><!-- TURTLE SOUP / INVESTIGATION BUREAU -->
<path fill="#ece7db" d="M94.71 161.32 93.89 161.89C96.43 164.68 99.46 169.35 100.12 173.13C105.86 177.47 111.43 166.07 94.71 161.32ZM96.02 143.36 95.12 143.93C97.58 146.56 100.69 150.99 101.59 154.35C107.17 158.37 112.25 147.54 96.02 143.36ZM58.46 168.86C57.56 168.86 54.85 168.86 54.85 168.86V170.58C56.58 170.75 57.81 170.99 58.95 171.81C60.76 173.04 61.25 180.34 59.86 188.79C60.27 191.66 61.74 192.97 63.46 192.97C66.91 192.97 69.04 190.43 69.2 186.57C69.45 179.52 66.58 176.16 66.5 172.06C66.42 170.01 66.99 167.22 67.56 164.52C68.55 160.17 74.12 141.23 77.16 131.06L75.68 130.65C62.15 164.19 62.15 164.19 60.68 167.14C59.86 168.86 59.53 168.86 58.46 168.86ZM54.2 136.47 53.46 137.05C56.33 139.51 59.61 143.61 60.51 147.3C67.73 151.89 73.39 138.11 54.2 136.47ZM59.77 117.45 59.12 118.1C62.15 120.81 65.76 125.32 66.83 129.34C74.29 134.18 80.19 119.83 59.77 117.45ZM121.93 121.79 117.42 127.7H91.26C92.49 125.48 93.56 123.19 94.46 121.06C96.51 121.38 97.25 120.97 97.58 120.15L86.42 116.87C84.29 127.21 79.29 139.92 73.47 147.21L74.37 147.87C77.73 145.49 80.85 142.46 83.64 139.01C83.06 144.43 82.32 150.9 81.42 157.3H71.58L72.24 159.68H81.09C80.19 165.75 79.29 171.49 78.39 175.67C77.24 176.16 76.09 176.9 75.35 177.47L82.82 182.31L85.77 178.78H111.6C110.94 181.49 110.29 183.21 109.47 184.03C108.73 184.77 107.99 185.02 106.51 185.02C104.96 185.02 100.69 184.69 97.99 184.52L97.9 185.75C100.77 186.33 103.07 187.15 104.22 188.3C105.2 189.36 105.45 191 105.45 192.97C109.22 192.97 112.66 192.23 115.12 189.53C116.85 187.72 118.16 184.36 119.06 178.78H127.67C128.82 178.78 129.56 178.37 129.8 177.47C127.51 174.85 123.41 171.08 123.41 171.08L119.96 176.41H119.47C120.04 172.06 120.54 166.57 120.86 159.68H129.56C130.7 159.68 131.44 159.27 131.69 158.37C129.39 155.66 125.21 151.64 125.21 151.64L121.6 157.3H120.95L121.44 141.88C123.32 141.64 124.39 141.15 124.96 140.49L117.58 134.09L113.48 138.44H92.98L86.51 135.32C87.74 133.6 88.88 131.88 89.87 130.08H127.83C128.98 130.08 129.88 129.67 130.05 128.76C127.01 125.89 121.93 121.79 121.93 121.79ZM112.01 176.41H85.6C86.51 171.73 87.49 165.75 88.39 159.68H113.65C113.24 166.89 112.66 172.39 112.01 176.41ZM113.73 157.3H88.72C89.62 151.31 90.44 145.33 90.93 140.82H114.3C114.14 146.97 113.98 152.46 113.73 157.3ZM170.47 143.11V154.92H154.48V143.11ZM178.35 143.11H194.58V154.92H178.35ZM170.47 119.66 159.16 116.46C154.32 127.29 144.48 140.57 135.3 147.87L136.12 148.77C139.64 146.97 143.25 144.67 146.69 142.05V177.88H147.92C151.2 177.88 154.48 176.16 154.48 175.34V171.98H170.47V182.64C170.47 188.87 172.93 190.43 181.71 190.43H192.45C209.18 190.43 212.54 189.2 212.54 185.67C212.54 184.11 211.88 183.21 209.34 182.31L209.1 170.58H208.11C206.64 176 205.32 180.34 204.42 181.9C203.85 182.8 203.27 183.05 202.04 183.13C200.49 183.29 197.12 183.38 193.11 183.38H182.86C179.08 183.38 178.35 182.72 178.35 180.92V171.98H194.58V176.49H195.89C198.52 176.49 202.37 174.77 202.45 174.19V144.26C203.93 143.93 205 143.36 205.49 142.79L197.62 136.72L193.84 140.74H176.62C181.22 137.54 186.46 133.19 189.83 130.32C191.55 130.32 192.45 130.08 193.11 129.5L185.64 122.61L181.22 126.88H162.52C164.24 124.83 165.8 122.78 167.19 120.73C169.41 120.89 170.06 120.48 170.47 119.66ZM154.48 169.6V157.3H170.47V169.6ZM150.63 138.85C154.16 135.82 157.52 132.54 160.47 129.26H180.89C179 132.7 176.38 137.29 174 140.74H155.14ZM178.35 169.6V157.3H194.58V169.6ZM223.69 168.94C222.79 168.94 219.92 168.94 219.92 168.94V170.67C221.64 170.83 223.04 171.08 224.18 171.9C226.07 173.13 226.56 180.26 225.17 188.87C225.58 191.74 227.14 193.05 228.86 193.05C232.38 193.05 234.68 190.51 234.76 186.66C235.09 179.6 232.14 176.41 231.97 172.22C231.97 170.17 232.63 167.3 233.45 164.6C234.6 160.09 241.73 140.16 245.5 129.42L244.11 129.09C227.79 164.11 227.79 164.11 226.07 167.22C225.09 168.94 224.84 168.94 223.69 168.94ZM218.03 136.23 217.38 136.88C220.99 139.51 225.17 144.18 226.73 148.28C234.43 152.54 239.19 137.7 218.03 136.23ZM224.59 117.86 224.02 118.51C227.71 121.38 232.38 126.3 234.02 130.65C242.14 135.08 246.9 119.58 224.59 117.86ZM248.78 144.92C246.73 145.16 244.52 145.66 243.21 146.23L249.77 153.28L253.79 150.58H258.21C254.2 161.07 247.23 170.58 237.3 177.39L238.21 178.54C251.65 171.98 261.08 162.63 266.33 150.58H271.17C267.56 166.89 259.03 179.93 243.21 188.62L243.95 189.85C264.28 181.57 274.94 168.53 279.37 150.58H283.55C282.32 169.44 279.94 180.75 276.99 183.21C276.09 183.95 275.35 184.2 273.88 184.2C272.07 184.2 267.07 183.79 264.04 183.54V184.77C266.99 185.34 269.69 186.41 270.92 187.56C271.99 188.62 272.24 190.59 272.24 192.89C276.42 192.89 279.7 191.9 282.4 189.53C286.91 185.59 289.78 173.95 291.01 151.64C292.82 151.48 293.88 151.07 294.54 150.33L287 143.93L282.81 148.2H256.41C264.69 142.29 276.91 132.95 282.98 127.78C285.36 127.78 287.32 127.45 288.23 126.55L280.35 118.84L276.09 122.94H246.73L247.47 125.32H274.45C267.81 131.14 256.66 139.42 248.78 144.92ZM304.87 117.45 304.05 117.94C307.33 121.71 311.51 127.62 312.83 132.37C320.12 137.29 325.7 123.02 304.87 117.45ZM316.68 142.29C318.48 141.97 319.55 141.31 319.96 140.74L313.15 135.08L309.55 138.77H299.05L299.79 141.15H309.38V175.26C309.38 176.9 308.89 177.55 305.69 179.28L311.02 187.97C312.01 187.31 313.15 186 313.56 183.95C319.06 177.55 323.49 171.4 325.7 168.21L325.04 167.39L316.68 173.21ZM327.26 122.04V150.82C327.26 166.4 326.03 180.83 316.02 191.99L317.09 192.81C333 182.06 334.31 165.83 334.31 150.82V125.24H364.73V182.72C364.73 183.87 364.4 184.44 363.01 184.44C361.29 184.44 353.83 183.87 353.83 183.87V185.1C357.35 185.59 359.16 186.57 360.39 187.64C361.45 188.79 361.86 190.59 362.03 192.81C370.72 191.99 371.78 188.79 371.78 183.46V126.47C373.51 126.14 374.74 125.48 375.31 124.83L367.36 118.76L363.91 122.86H335.54L327.26 119.58ZM343.99 172.63V159.27H353.66V172.63ZM343.99 177.88V175.01H353.66V178.62H354.73C356.7 178.62 359.89 177.31 359.98 176.82V160.17C361.45 159.84 362.6 159.27 363.09 158.69L356.12 153.36L352.92 156.89H344.31L337.67 154.02V179.85H338.57C341.28 179.85 343.99 178.46 343.99 177.88ZM354.32 128.11 345.3 127.12V136.55H336.28L336.93 138.93H345.3V148.69H335.13L335.79 151.07H362.6C363.67 151.07 364.4 150.66 364.65 149.76C362.44 147.21 358.42 143.69 358.42 143.69L354.97 148.69H351.69V138.93H361.12C362.19 138.93 363.01 138.52 363.17 137.62C361.04 135.24 357.43 132.04 357.43 132.04L354.32 136.55H351.69V130.16C353.5 129.83 354.15 129.17 354.32 128.11ZM449.52 181.08 444.76 186.9H381.79L382.53 189.2H456C457.23 189.2 458.05 188.79 458.21 187.89C454.93 185.02 449.52 181.08 449.52 181.08ZM434.76 157.63V165.66H405.16V157.63ZM405.16 181.74V178.78H434.76V183.54H436.07C438.78 183.54 442.47 181.57 442.55 180.92V158.69C444.03 158.45 445.09 157.79 445.58 157.22L437.79 151.23L433.94 155.25H405.73L397.45 151.89V184.2H398.6C401.8 184.2 405.16 182.39 405.16 181.74ZM405.16 176.41V168.04H434.76V176.41ZM448.7 123.6 444.03 129.58H423.69V120.48C425.9 120.15 426.56 119.33 426.72 118.27L415.9 117.2V129.58H383.1L383.84 131.96H409.91C403.6 140.9 393.43 149.76 381.87 155.58L382.53 156.81C395.97 152.22 407.78 145.49 415.9 136.88V152.79H417.29C420.33 152.79 423.69 151.4 423.69 150.66V131.96H424.67C430.25 142.79 440.91 150.9 451.98 156.15C452.88 152.54 455.01 150.08 458.05 149.51L458.21 148.61C447.14 145.74 433.86 139.83 426.81 131.96H454.93C456.16 131.96 456.98 131.55 457.23 130.65C453.95 127.7 448.7 123.6 448.7 123.6ZM474.45 122.94V145.66C474.45 161.73 473.38 178.62 463.87 192.07L464.85 192.81C479.04 181.74 481.83 165.83 482.32 151.81H527.58C527.17 170.34 526.44 181.33 524.39 183.29C523.73 183.95 523.07 184.2 521.68 184.2C519.96 184.2 514.71 183.79 511.59 183.46L511.51 184.69C514.71 185.34 517.66 186.33 518.97 187.48C520.12 188.62 520.37 190.51 520.37 192.89C524.47 192.89 527.75 191.9 530.04 189.69C533.65 186.08 534.8 175.26 535.29 152.95C536.93 152.79 537.92 152.22 538.49 151.56L530.95 145.16L526.76 149.43H482.4V145.57V139.51H520.61V144.02H521.93C524.39 144.02 528.4 142.62 528.49 142.05V126.63C530.13 126.3 531.27 125.57 531.85 124.91L523.57 118.76L519.79 122.94H483.63L474.45 119.5ZM482.4 137.21V125.24H520.61V137.21ZM487.32 160.17V184.77H488.31C491.34 184.77 494.54 183.21 494.54 182.56V177.47H508.72V181.41H510.04C512.41 181.41 516.02 179.85 516.1 179.19V163.37C517.42 163.12 518.4 162.55 518.81 161.97L511.51 156.56L508.07 160.17H494.95L487.32 156.97ZM494.54 175.09V162.55H508.72V175.09Z"/><!-- 海龟汤调查局 -->
<path fill="#ece7db" d="M66.06 237.41 65.85 237.69C67.21 238.42 69 239.88 69.65 241.07C71.5 241.96 72.12 238.27 66.06 237.41ZM66.66 231.4 66.43 231.69C67.75 232.39 69.47 233.77 70.09 234.89C71.83 235.72 72.46 232.23 66.66 231.4ZM78.78 234.26 77.61 235.77H76.62C76.7 234.29 76.77 232.62 76.83 230.8C77.4 230.78 77.74 230.62 77.92 230.41L75.92 228.72L74.9 229.84H64.66L62.53 228.8C62.37 230.62 62.03 233.22 61.64 235.77H57.12L57.35 236.52H61.51C61.2 238.45 60.86 240.29 60.58 241.65C60.21 241.78 59.8 241.96 59.56 242.14L61.46 243.57L62.27 242.66H74.12C73.89 243.65 73.63 244.3 73.34 244.56C73.03 244.82 72.8 244.9 72.3 244.9C71.73 244.9 69.99 244.74 68.92 244.64V245.1C69.86 245.26 70.9 245.52 71.26 245.81C71.63 246.09 71.7 246.53 71.7 247.03C72.87 247.03 73.91 246.72 74.64 245.91C75.14 245.36 75.53 244.3 75.84 242.66H79.63C80 242.66 80.23 242.53 80.31 242.24C79.48 241.44 78.18 240.4 78.18 240.4L77.03 241.88H75.99C76.23 240.45 76.41 238.66 76.57 236.52H80.23C80.6 236.52 80.83 236.39 80.91 236.11C80.1 235.33 78.78 234.26 78.78 234.26ZM62.24 241.88C62.53 240.35 62.86 238.45 63.2 236.52H74.88C74.72 238.73 74.51 240.53 74.28 241.88ZM63.31 235.77C63.62 233.9 63.9 232.08 64.09 230.62H75.16C75.11 232.49 75.01 234.24 74.93 235.77ZM77.63 224.85 76.36 226.44H63.77C64.14 225.84 64.5 225.19 64.81 224.54C65.39 224.62 65.7 224.41 65.83 224.12L63.25 223.06C62.01 226.7 59.9 230.05 57.85 232.08L58.18 232.36C60.06 231.14 61.82 229.37 63.28 227.19H79.3C79.63 227.19 79.89 227.06 79.97 226.77C79.04 225.92 77.63 224.85 77.63 224.85ZM103.87 231.64 102.23 233.79H83.25L83.51 234.65H106.13C106.54 234.65 106.86 234.57 106.93 234.26C105.76 233.17 103.87 231.64 103.87 231.64ZM123.37 222.9 123.08 223.11C123.83 223.86 124.61 225.29 124.67 226.41C126.25 227.68 127.84 224.38 123.37 222.9ZM119.57 225.63H119.1C119.05 226.83 118.27 228.28 117.62 228.83C117.13 229.22 116.84 229.79 117.13 230.28C117.46 230.83 118.37 230.67 118.82 230.21C119.28 229.74 119.65 228.85 119.73 227.68H130.28L129.4 230.49L129.76 230.65C130.49 229.97 131.61 228.75 132.21 227.97C132.73 227.94 133.01 227.89 133.19 227.74L131.27 225.84L130.2 226.93H119.75C119.73 226.51 119.67 226.1 119.57 225.63ZM125.6 230.75V232.57L123.91 231.06L122.95 232.08H121.03C121.21 231.43 121.39 230.75 121.55 230.08C122.12 230.05 122.4 229.82 122.48 229.5L120.01 228.93C119.54 232.65 118.45 236.21 117.05 238.63L117.46 238.89C118.09 238.21 118.63 237.41 119.15 236.52C119.8 237.25 120.4 238.16 120.58 238.94C121.96 239.98 123.16 237.38 119.49 235.9C119.99 234.96 120.43 233.92 120.79 232.83H123.13C122.64 238.58 121.23 243.52 116.24 246.72L116.48 247.11C122.61 244.04 124.07 238.79 124.74 233.04C125.19 232.99 125.45 232.94 125.6 232.75V244.77C125.6 245.94 125.94 246.35 127.6 246.35H129.5C132.49 246.35 133.22 246.07 133.22 245.39C133.22 245.05 133.09 244.9 132.54 244.69L132.47 241.57H132.15C131.92 242.82 131.63 244.27 131.48 244.61C131.37 244.79 131.27 244.84 131.06 244.87C130.85 244.9 130.26 244.9 129.53 244.9H127.89C127.21 244.9 127.11 244.77 127.11 244.35V232.29H130.02V238.19C130.02 238.55 129.94 238.66 129.61 238.66C129.24 238.66 127.79 238.53 127.79 238.53V238.97C128.51 239.05 128.93 239.23 129.16 239.46C129.4 239.72 129.45 240.16 129.5 240.63C131.3 240.42 131.53 239.64 131.53 238.4V232.55C132 232.47 132.41 232.26 132.57 232.05L130.57 230.57L129.79 231.53H127.42L125.6 230.7ZM112.47 242.22V234.11H115.31V242.22ZM116.45 224.23 115.25 225.68H108.94L109.14 226.46H112.37C111.69 230.54 110.57 234.86 108.78 238.14L109.2 238.47C109.85 237.59 110.44 236.65 110.96 235.69V246.04H111.2C111.95 246.04 112.47 245.6 112.47 245.49V243H115.31V244.71H115.54C116.03 244.71 116.81 244.35 116.84 244.22V234.37C117.33 234.26 117.75 234.08 117.91 233.87L115.93 232.34L115.05 233.33H112.78L112.21 233.07C113.04 231.01 113.67 228.8 114.11 226.46H117.93C118.3 226.46 118.56 226.33 118.61 226.05C117.8 225.27 116.45 224.23 116.45 224.23ZM141.07 227.53 140.76 227.68C141.54 228.83 142.42 230.7 142.53 232.13C143.98 233.46 145.52 230.21 141.07 227.53ZM136.89 228.31 136.42 228.28C136.52 230.15 135.9 232.34 135.25 233.2C134.81 233.69 134.6 234.31 134.94 234.73C135.4 235.22 136.31 234.91 136.7 234.26C137.33 233.25 137.64 231.04 136.89 228.31ZM141.2 223.5 138.6 223.21V247.03H138.94C139.59 247.03 140.27 246.66 140.27 246.43V224.23C140.94 224.12 141.12 223.86 141.2 223.5ZM149.21 231.95C147.08 233.66 144.45 235.07 141.38 236.06L141.59 236.47C145.05 235.64 147.88 234.39 150.2 232.75C152.23 234.29 154.64 235.41 157.45 236.19C157.69 235.38 158.23 234.89 158.96 234.78L159.01 234.5C156.2 233.95 153.63 233.07 151.45 231.79C153.45 230.13 154.98 228.13 156.1 225.84C156.72 225.81 157.01 225.76 157.22 225.53L155.35 223.81L154.18 224.85H142.53L142.76 225.6H144.92C145.88 228.18 147.31 230.28 149.21 231.95ZM150.25 231.04C148.2 229.63 146.56 227.81 145.52 225.6H154.12C153.24 227.63 151.91 229.45 150.25 231.04ZM155.14 237.51 153.92 239.05H150.85V235.69C151.42 235.61 151.63 235.41 151.68 235.04L149.13 234.78V239.05H143.2L143.41 239.83H149.13V245.03H141.51L141.72 245.78H158.49C158.83 245.78 159.12 245.65 159.19 245.36C158.31 244.56 156.91 243.44 156.91 243.44L155.68 245.03H150.85V239.83H156.65C157.01 239.83 157.3 239.7 157.35 239.41C156.49 238.6 155.14 237.51 155.14 237.51ZM164.76 228.72V234.18H165.02C165.72 234.18 166.47 233.82 166.47 233.66V232.83H172.09V235.25H164.16L164.37 236H172.09V238.42H161.09L161.33 239.15H172.09V241.59H164L164.24 242.35H172.09V244.43C172.09 244.87 171.91 245.05 171.34 245.05C170.74 245.05 167.49 244.82 167.49 244.82V245.23C168.87 245.39 169.65 245.6 170.11 245.86C170.53 246.14 170.69 246.56 170.79 247.05C173.47 246.82 173.78 245.88 173.78 244.53V242.35H179.53V243.78H179.79C180.33 243.78 181.16 243.36 181.19 243.18V239.15H184.47C184.83 239.15 185.09 239.02 185.14 238.76C184.34 237.95 182.98 236.86 182.98 236.86L181.81 238.42H181.19V236.32C181.68 236.21 182.1 236 182.28 235.8L180.2 234.24L179.29 235.25H173.78V232.83H179.45V233.74H179.71C180.28 233.74 181.14 233.38 181.16 233.22V229.79C181.66 229.69 182.05 229.48 182.23 229.27L180.12 227.71L179.19 228.72H173.78V226.67H184.15C184.52 226.67 184.8 226.54 184.86 226.25C183.92 225.4 182.44 224.28 182.44 224.28L181.11 225.89H173.78V224.2C174.43 224.12 174.69 223.86 174.74 223.5L172.09 223.21V225.89H161.14L161.38 226.67H172.09V228.72H166.6L164.76 227.92ZM173.78 239.15H179.53V241.59H173.78ZM173.78 238.42V236H179.53V238.42ZM172.09 229.48V232.08H166.47V229.48ZM173.78 229.48H179.45V232.08H173.78ZM190.63 245.57C189.51 245.18 188.42 244.74 188.42 243.49C188.42 242.66 189.04 241.93 190.06 241.93C191.28 241.93 191.9 242.89 191.9 244.27C191.9 246.12 190.99 248.74 188.42 250.07L188.05 249.42C189.9 248.35 190.52 246.74 190.63 245.57ZM223.13 236.11V239.54H217.51V236.34L217.8 236.11ZM225.34 224.07C224.92 225.06 224.4 226.07 223.83 227.11L222.22 225.73L221.1 227.22H219.67V224.33C220.29 224.25 220.55 223.99 220.61 223.63L218.01 223.37V227.22H213.72L213.92 227.97H218.01V231.61H212.91L213.12 232.36H220.14C219.28 233.35 218.37 234.34 217.41 235.25L215.93 234.63V236.55C214.86 237.43 213.77 238.24 212.6 238.97L212.88 239.28C213.95 238.73 214.96 238.14 215.93 237.49V246.85H216.19C216.97 246.85 217.51 246.43 217.51 246.27V244.61H223.13V246.43H223.39C223.93 246.43 224.77 246.01 224.79 245.86V236.42C225.29 236.32 225.7 236.11 225.86 235.9L223.83 234.31L222.87 235.35H218.73C219.85 234.39 220.87 233.4 221.8 232.36H226.72C227.05 232.36 227.29 232.23 227.37 231.95C226.59 231.17 225.23 230.13 225.23 230.13L224.06 231.61H222.48C224.19 229.58 225.6 227.45 226.61 225.47C227.24 225.6 227.52 225.5 227.68 225.21ZM217.51 240.32H223.13V243.86H217.51ZM219.67 227.97H223.31C222.56 229.19 221.7 230.41 220.76 231.61H219.67ZM228.04 225.21V247.03H228.28C229.13 247.03 229.71 246.56 229.71 246.43V225.97H234.2C233.48 228.15 232.33 231.4 231.6 233.12C233.87 235.25 234.75 237.36 234.75 239.31C234.75 240.4 234.46 241 233.92 241.28C233.68 241.41 233.5 241.44 233.22 241.44C232.7 241.44 231.47 241.44 230.77 241.44V241.85C231.47 241.93 232.1 242.06 232.33 242.24C232.57 242.45 232.7 243 232.7 243.57C235.45 243.41 236.47 242.19 236.44 239.67C236.44 237.56 235.32 235.25 232.23 233.04C233.42 231.38 235.17 228.15 236.08 226.41C236.7 226.41 237.06 226.36 237.27 226.12L235.27 224.15L234.15 225.21H230.02L228.04 224.2ZM244.97 239.93 244.68 240.16C245.93 241.18 247.39 243 247.7 244.45C249.57 245.73 250.84 241.75 244.97 239.93ZM252.9 223.19C252.07 225.71 250.69 228.18 249.39 229.69L249.75 230L250.14 229.69V231.51H241.77L241.98 232.26H250.14V235.12H239.12L239.35 235.85H262.21C262.54 235.85 262.83 235.72 262.88 235.43C262.05 234.68 260.72 233.66 260.72 233.66L259.53 235.12H251.81V232.26H260.15C260.52 232.26 260.75 232.13 260.83 231.84C260.02 231.12 258.75 230.13 258.75 230.13L257.6 231.51H251.81V229.87C252.33 229.76 252.51 229.56 252.56 229.27L250.87 229.06C251.55 228.44 252.22 227.71 252.82 226.9H254.72C255.5 227.76 256.25 229.01 256.33 230.13C257.76 231.25 259.16 228.59 255.97 226.9H262C262.36 226.9 262.6 226.8 262.67 226.51C261.84 225.73 260.52 224.69 260.52 224.69L259.32 226.18H253.34C253.7 225.66 254.04 225.11 254.33 224.56C254.87 224.62 255.19 224.41 255.32 224.12ZM254.64 236.03V238.73H240.03L240.26 239.49H254.64V244.4C254.64 244.82 254.51 244.97 253.96 244.97C253.34 244.97 249.93 244.74 249.93 244.74V245.13C251.36 245.31 252.2 245.52 252.64 245.81C253.05 246.09 253.24 246.53 253.34 247.05C256.04 246.79 256.36 245.91 256.36 244.51V239.49H261.63C262 239.49 262.26 239.36 262.31 239.07C261.48 238.32 260.15 237.3 260.15 237.3L259.01 238.73H256.36V236.97C256.93 236.89 257.16 236.68 257.24 236.32ZM243.36 223.19C242.34 226.07 240.7 228.67 239.09 230.28L239.43 230.57C240.83 229.71 242.19 228.44 243.3 226.9H244.4C245.05 227.74 245.67 228.98 245.64 230.05C246.94 231.25 248.43 228.72 245.41 226.9H250.61C250.97 226.9 251.18 226.8 251.23 226.51C250.51 225.79 249.28 224.82 249.28 224.82L248.24 226.18H243.82C244.16 225.68 244.47 225.14 244.76 224.59C245.31 224.64 245.62 224.43 245.75 224.15ZM283.66 233.46 283.27 233.64C284.75 235.95 286.8 239.49 287.27 242.06C289.22 243.73 290.44 239.07 283.66 233.46ZM275.91 233.3C275.05 236.97 273.46 240.45 271.75 242.66L272.14 242.95C274.32 241.05 276.25 238.03 277.49 234.6C278.07 234.63 278.38 234.39 278.48 234.08ZM279.83 229.27V244.32C279.83 244.71 279.68 244.87 279.18 244.87C278.61 244.87 275.75 244.69 275.75 244.69V245.08C277 245.23 277.7 245.44 278.12 245.73C278.48 246.01 278.64 246.46 278.72 247C281.24 246.74 281.52 245.86 281.52 244.48V230.26C282.15 230.15 282.38 229.92 282.46 229.56ZM276.45 223.29C275.44 227.55 273.59 231.66 271.67 234.26L272.03 234.52C273.62 233.09 275.05 231.17 276.25 228.91H286.13C285.87 230.08 285.45 231.66 285.11 232.68L285.45 232.86C286.36 231.92 287.43 230.34 288 229.22C288.52 229.17 288.8 229.14 289.01 228.96L287.06 227.06L285.97 228.18H276.64C277.18 227.06 277.68 225.89 278.12 224.67C278.69 224.69 279 224.46 279.11 224.15ZM270.73 223.21C269.43 228.15 267.12 233.12 264.88 236.24L265.25 236.5C266.39 235.38 267.48 234 268.5 232.47V247H268.81C269.46 247 270.19 246.56 270.21 246.43V230.96C270.66 230.91 270.89 230.73 270.97 230.49L269.9 230.1C270.86 228.36 271.7 226.49 272.4 224.56C273 224.59 273.31 224.36 273.41 224.07ZM295.69 228.59 295.38 228.75C296.37 230.1 297.51 232.18 297.62 233.85C299.36 235.41 301.05 231.45 295.69 228.59ZM308.62 228.62C307.81 230.67 306.67 232.83 305.78 234.16L306.15 234.42C307.47 233.4 308.98 231.77 310.15 230.15C310.67 230.26 311.03 230.05 311.16 229.76ZM302.06 223.21V227.35H292.47L292.68 228.13H302.06V234.94H291.2L291.43 235.69H300.82C298.68 239.31 295.04 242.95 290.91 245.36L291.17 245.78C295.67 243.73 299.49 240.71 302.06 237.12V247.03H302.4C303.05 247.03 303.78 246.59 303.78 246.33V236.03C305.91 240.27 309.58 243.62 313.48 245.44C313.69 244.64 314.31 244.09 315.04 243.99L315.06 243.73C311.03 242.37 306.61 239.28 304.22 235.69H314.08C314.47 235.69 314.7 235.56 314.78 235.3C313.82 234.42 312.31 233.3 312.31 233.3L310.98 234.94H303.78V228.13H312.96C313.32 228.13 313.56 228 313.63 227.71C312.72 226.85 311.27 225.76 311.27 225.76L309.94 227.35H303.78V224.23C304.46 224.12 304.66 223.86 304.74 223.5ZM320.63 223.08 320.34 223.26C321.49 224.38 322.92 226.25 323.33 227.68C325.23 228.93 326.48 225.14 320.63 223.08ZM321.56 227.16 318.94 226.88V247.08H319.25C319.9 247.08 320.6 246.66 320.6 246.43V227.89C321.28 227.79 321.49 227.55 321.56 227.16ZM325.8 241.91V239.72H332.04V241.62H332.3C332.85 241.62 333.65 241.23 333.68 241.07V232.47C334.17 232.36 334.59 232.18 334.77 231.97L332.72 230.39L331.78 231.4H325.91L324.16 230.6V242.48H324.42C325.13 242.48 325.8 242.09 325.8 241.91ZM332.04 232.18V238.94H325.8V232.18ZM337.19 225.68H326.11L326.35 226.46H337.45V244.3C337.45 244.77 337.29 244.95 336.75 244.95C336.18 244.95 333.13 244.69 333.13 244.69V245.13C334.46 245.29 335.16 245.49 335.6 245.78C335.99 246.04 336.18 246.51 336.25 247.05C338.8 246.79 339.11 245.88 339.11 244.51V226.75C339.63 226.67 340.08 226.46 340.23 226.25L338.05 224.62ZM346.76 247.13C348.76 247.13 350.4 245.47 350.4 243.47C350.4 241.46 348.76 239.83 346.76 239.83C344.76 239.83 343.09 241.46 343.09 243.47C343.09 245.47 344.76 247.13 346.76 247.13ZM346.76 246.25C345.2 246.25 343.98 245 343.98 243.47C343.98 241.93 345.2 240.71 346.76 240.71C348.29 240.71 349.51 241.93 349.51 243.47C349.51 245 348.29 246.25 346.76 246.25Z"/><!-- 每一碗怪事，都等你来问。 -->
<path fill="#a8a191" d="M59.65 286.12Q58.38 286.12 57.62 285.45Q56.86 284.78 56.86 283.6H57.94Q57.94 284.33 58.41 284.75Q58.88 285.16 59.65 285.16Q60.39 285.16 60.84 284.73Q61.28 284.3 61.28 283.6Q61.28 283.07 61 282.68Q60.72 282.29 60.19 282.15L58.86 281.78Q58.03 281.54 57.55 280.92Q57.08 280.3 57.08 279.46Q57.08 278.76 57.39 278.24Q57.7 277.71 58.27 277.41Q58.83 277.12 59.56 277.12Q60.31 277.12 60.88 277.41Q61.45 277.71 61.77 278.23Q62.1 278.75 62.1 279.44H61.02Q61.02 278.84 60.61 278.46Q60.2 278.08 59.56 278.08Q58.93 278.08 58.53 278.46Q58.14 278.84 58.14 279.44Q58.14 279.92 58.39 280.26Q58.65 280.6 59.12 280.73L60.49 281.12Q61.36 281.36 61.85 282.02Q62.34 282.69 62.34 283.6Q62.34 284.75 61.6 285.44Q60.87 286.12 59.65 286.12ZM66.46 286V278.22H64.06V277.24H69.94V278.22H67.54V286ZM74.4 286.12Q73.22 286.12 72.54 285.44Q71.86 284.75 71.86 283.48V279.76Q71.86 278.49 72.54 277.8Q73.22 277.12 74.4 277.12Q75.58 277.12 76.26 277.8Q76.94 278.49 76.94 279.75V283.48Q76.94 284.75 76.26 285.44Q75.58 286.12 74.4 286.12ZM74.4 285.15Q75.11 285.15 75.49 284.75Q75.86 284.34 75.86 283.6V279.64Q75.86 278.9 75.49 278.49Q75.11 278.09 74.4 278.09Q73.7 278.09 73.32 278.49Q72.94 278.9 72.94 279.64V283.6Q72.94 284.34 73.32 284.75Q73.7 285.15 74.4 285.15ZM79.32 286V277.24H82.02Q82.8 277.24 83.38 277.56Q83.97 277.88 84.3 278.44Q84.62 279 84.62 279.76Q84.62 280.65 84.16 281.28Q83.71 281.92 82.95 282.17L84.74 286H83.55L81.84 282.28H80.38V286ZM80.38 281.31H82.02Q82.69 281.31 83.1 280.88Q83.5 280.46 83.5 279.76Q83.5 279.05 83.1 278.63Q82.69 278.21 82.02 278.21H80.38ZM86.86 286V285.02H88.65V278.22H86.86V277.24H91.54V278.22H89.75V285.02H91.54V286ZM94.2 286V277.24H99.24V278.22H95.27V280.94H98.82V281.9H95.27V285.02H99.24V286ZM104.05 286.12Q102.78 286.12 102.02 285.45Q101.26 284.78 101.26 283.6H102.34Q102.34 284.33 102.81 284.75Q103.28 285.16 104.05 285.16Q104.79 285.16 105.24 284.73Q105.68 284.3 105.68 283.6Q105.68 283.07 105.4 282.68Q105.12 282.29 104.59 282.15L103.26 281.78Q102.43 281.54 101.95 280.92Q101.48 280.3 101.48 279.46Q101.48 278.76 101.79 278.24Q102.1 277.71 102.67 277.41Q103.23 277.12 103.96 277.12Q104.71 277.12 105.28 277.41Q105.85 277.71 106.17 278.23Q106.5 278.75 106.5 279.44H105.42Q105.42 278.84 105.01 278.46Q104.6 278.08 103.96 278.08Q103.33 278.08 102.93 278.46Q102.54 278.84 102.54 279.44Q102.54 279.92 102.79 280.26Q103.05 280.6 103.52 280.73L104.89 281.12Q105.76 281.36 106.25 282.02Q106.74 282.69 106.74 283.6Q106.74 284.75 106 285.44Q105.27 286.12 104.05 286.12ZM116.32 286V277.24H118.8Q120 277.24 120.68 277.84Q121.36 278.44 121.36 279.51Q121.36 280.18 120.93 280.72Q120.5 281.26 119.82 281.39V281.43Q120.34 281.49 120.73 281.79Q121.12 282.09 121.34 282.55Q121.56 283.01 121.56 283.56Q121.56 284.69 120.87 285.35Q120.18 286 118.98 286ZM117.37 280.97H118.79Q119.48 280.97 119.89 280.6Q120.29 280.23 120.29 279.59Q120.29 278.96 119.89 278.58Q119.5 278.21 118.8 278.21H117.37ZM117.37 285.03H118.86Q119.62 285.03 120.05 284.63Q120.49 284.22 120.49 283.53Q120.49 282.81 120.05 282.36Q119.62 281.91 118.86 281.91H117.37ZM125.66 286V282.72L123.02 277.24H124.17L125.88 280.84Q126.02 281.14 126.1 281.35Q126.19 281.56 126.21 281.66Q126.24 281.56 126.33 281.35Q126.42 281.14 126.56 280.84L128.26 277.24H129.38L126.74 282.72V286ZM138.5 286V277.24H141.32Q142.55 277.24 143.27 277.94Q144 278.64 144 279.82Q144 281 143.27 281.7Q142.55 282.4 141.32 282.4H139.58V286ZM139.58 281.43H141.32Q142.03 281.43 142.46 280.99Q142.88 280.55 142.88 279.82Q142.88 279.08 142.46 278.64Q142.03 278.21 141.32 278.21H139.58ZM146 286V277.24H151.04V278.22H147.07V280.94H150.62V281.9H147.07V285.02H151.04V286ZM155.8 286.12Q154.62 286.12 153.94 285.44Q153.26 284.75 153.26 283.48V279.76Q153.26 278.49 153.94 277.8Q154.62 277.12 155.8 277.12Q156.98 277.12 157.66 277.8Q158.34 278.49 158.34 279.75V283.48Q158.34 284.75 157.66 285.44Q156.98 286.12 155.8 286.12ZM155.8 285.15Q156.51 285.15 156.89 284.75Q157.26 284.34 157.26 283.6V279.64Q157.26 278.9 156.89 278.49Q156.51 278.09 155.8 278.09Q155.1 278.09 154.72 278.49Q154.34 278.9 154.34 279.64V283.6Q154.34 284.34 154.72 284.75Q155.1 285.15 155.8 285.15ZM160.7 286V277.24H163.52Q164.75 277.24 165.47 277.94Q166.2 278.64 166.2 279.82Q166.2 281 165.47 281.7Q164.75 282.4 163.52 282.4H161.78V286ZM161.78 281.43H163.52Q164.23 281.43 164.66 280.99Q165.08 280.55 165.08 279.82Q165.08 279.08 164.66 278.64Q164.23 278.21 163.52 278.21H161.78ZM168.56 286V277.24H169.64V285.02H173.6V286ZM175.6 286V277.24H180.64V278.22H176.67V280.94H180.22V281.9H176.67V285.02H180.64V286ZM185.4 286.12Q184.96 286.12 184.69 285.86Q184.42 285.59 184.42 285.17Q184.42 284.73 184.69 284.45Q184.96 284.18 185.4 284.18Q185.84 284.18 186.11 284.45Q186.38 284.73 186.38 285.17Q186.38 285.59 186.11 285.86Q185.84 286.12 185.4 286.12ZM200.3 286.12Q199.1 286.12 198.4 285.45Q197.7 284.78 197.7 283.6V279.64Q197.7 278.46 198.4 277.79Q199.1 277.12 200.3 277.12Q201.47 277.12 202.17 277.8Q202.86 278.48 202.86 279.64H201.78Q201.78 278.9 201.39 278.49Q201 278.09 200.3 278.09Q199.59 278.09 199.19 278.49Q198.78 278.9 198.78 279.64V283.6Q198.78 284.34 199.19 284.75Q199.59 285.15 200.3 285.15Q201 285.15 201.39 284.75Q201.78 284.34 201.78 283.6H202.86Q202.86 284.76 202.17 285.44Q201.47 286.12 200.3 286.12ZM205.56 286V277.24H206.64V285.02H210.6V286ZM215 286.12Q213.78 286.12 213.13 285.44Q212.48 284.76 212.48 283.6V277.24H213.56V283.6Q213.56 284.32 213.91 284.74Q214.27 285.16 215 285.16Q215.72 285.16 216.08 284.74Q216.44 284.32 216.44 283.6V277.24H217.52V283.6Q217.52 284.78 216.88 285.45Q216.24 286.12 215 286.12ZM220 286V277.24H225.04V278.22H221.07V280.94H224.62V281.9H221.07V285.02H225.04V286ZM229.85 286.12Q228.58 286.12 227.82 285.45Q227.06 284.78 227.06 283.6H228.14Q228.14 284.33 228.61 284.75Q229.08 285.16 229.85 285.16Q230.59 285.16 231.04 284.73Q231.48 284.3 231.48 283.6Q231.48 283.07 231.2 282.68Q230.92 282.29 230.39 282.15L229.06 281.78Q228.23 281.54 227.75 280.92Q227.28 280.3 227.28 279.46Q227.28 278.76 227.59 278.24Q227.9 277.71 228.47 277.41Q229.03 277.12 229.76 277.12Q230.51 277.12 231.08 277.41Q231.65 277.71 231.97 278.23Q232.3 278.75 232.3 279.44H231.22Q231.22 278.84 230.81 278.46Q230.4 278.08 229.76 278.08Q229.13 278.08 228.73 278.46Q228.34 278.84 228.34 279.44Q228.34 279.92 228.59 280.26Q228.85 280.6 229.32 280.73L230.69 281.12Q231.56 281.36 232.05 282.02Q232.54 282.69 232.54 283.6Q232.54 284.75 231.8 285.44Q231.07 286.12 229.85 286.12ZM242.28 286 241.24 277.24H242.24L242.92 283.72Q242.97 284.12 242.99 284.54Q243.02 284.97 243.03 285.22Q243.05 284.97 243.09 284.54Q243.14 284.12 243.18 283.72L244.05 277.24H245.21L246 283.72Q246.05 284.12 246.1 284.54Q246.15 284.97 246.17 285.22Q246.2 284.97 246.23 284.54Q246.26 284.12 246.3 283.72L247.01 277.24H247.96L246.89 286H245.54L244.74 279.4Q244.7 278.99 244.67 278.6Q244.65 278.21 244.62 278Q244.6 278.21 244.58 278.6Q244.55 278.99 244.49 279.4L243.64 286ZM249.66 286V285.02H251.45V278.22H249.66V277.24H254.34V278.22H252.55V285.02H254.34V286ZM258.86 286V278.22H256.46V277.24H262.34V278.22H259.94V286ZM264.32 286V277.24H265.4V280.98H268.2V277.24H269.28V286H268.2V281.97H265.4V286ZM279.14 286V277.24H284.3V278.22H280.2V281.13H283.99V282.11H280.22V286ZM286.52 286V277.24H289.22Q290 277.24 290.58 277.56Q291.17 277.88 291.5 278.44Q291.82 279 291.82 279.76Q291.82 280.65 291.36 281.28Q290.91 281.92 290.15 282.17L291.94 286H290.75L289.04 282.28H287.58V286ZM287.58 281.31H289.22Q289.89 281.31 290.3 280.88Q290.7 280.46 290.7 279.76Q290.7 279.05 290.3 278.63Q289.89 278.21 289.22 278.21H287.58ZM294.06 286V285.02H295.85V278.22H294.06V277.24H298.74V278.22H296.95V285.02H298.74V286ZM301.4 286V277.24H306.44V278.22H302.47V280.94H306.02V281.9H302.47V285.02H306.44V286ZM308.68 286V277.24H310.12L312.8 284.74Q312.77 284.44 312.74 284Q312.71 283.56 312.69 283.08Q312.68 282.59 312.68 282.16V277.24H313.72V286H312.28L309.62 278.5Q309.64 278.79 309.66 279.23Q309.69 279.66 309.71 280.15Q309.72 280.64 309.72 281.08V286ZM316.1 286V277.24H318.37Q319.22 277.24 319.84 277.56Q320.46 277.89 320.8 278.48Q321.14 279.06 321.14 279.87V283.36Q321.14 284.16 320.8 284.76Q320.46 285.35 319.84 285.68Q319.22 286 318.37 286ZM317.18 285.04H318.37Q319.16 285.04 319.61 284.6Q320.06 284.15 320.06 283.36V279.87Q320.06 279.09 319.61 278.64Q319.16 278.2 318.37 278.2H317.18ZM326.05 286.12Q324.78 286.12 324.02 285.45Q323.26 284.78 323.26 283.6H324.34Q324.34 284.33 324.81 284.75Q325.28 285.16 326.05 285.16Q326.79 285.16 327.24 284.73Q327.68 284.3 327.68 283.6Q327.68 283.07 327.4 282.68Q327.12 282.29 326.59 282.15L325.26 281.78Q324.43 281.54 323.95 280.92Q323.48 280.3 323.48 279.46Q323.48 278.76 323.79 278.24Q324.1 277.71 324.67 277.41Q325.23 277.12 325.96 277.12Q326.71 277.12 327.28 277.41Q327.85 277.71 328.17 278.23Q328.5 278.75 328.5 279.44H327.42Q327.42 278.84 327.01 278.46Q326.6 278.08 325.96 278.08Q325.33 278.08 324.93 278.46Q324.54 278.84 324.54 279.44Q324.54 279.92 324.79 280.26Q325.05 280.6 325.52 280.73L326.89 281.12Q327.76 281.36 328.25 282.02Q328.74 282.69 328.74 283.6Q328.74 284.75 328 285.44Q327.27 286.12 326.05 286.12ZM333.4 286.12Q332.96 286.12 332.69 285.86Q332.42 285.59 332.42 285.17Q332.42 284.73 332.69 284.45Q332.96 284.18 333.4 284.18Q333.84 284.18 334.11 284.45Q334.38 284.73 334.38 285.17Q334.38 285.59 334.11 285.86Q333.84 286.12 333.4 286.12Z"/><!-- STORIES BY PEOPLE. CLUES WITH FRIENDS. -->
<g transform="rotate(2 899 185)"><path d="M707 73h115l13 17h296v231H707z" fill="none" stroke="#49453b"/></g>
<path d="M704 66h119l14 17h300v231H704z" fill="#1f1d18" stroke="#49453b"/>
<path d="M704 135h433M734 211h246M734 246h221" stroke="#49453b"/>
<path fill="#e0736a" d="M741.43 103.6 741.28 103.75C741.8 104.08 742.35 104.74 742.47 105.3C743.57 106.02 744.46 103.86 741.43 103.6ZM748.72 112.83 747.92 113.83H743.03V112.76C743.45 112.7 743.62 112.54 743.66 112.31L741.92 112.12C742.55 111.91 743.11 111.68 743.62 111.4C745.27 111.78 746.66 112.22 747.7 112.7C748.96 113.17 750.18 111.68 744.66 110.72C745.36 110.16 745.92 109.48 746.38 108.65H749.13C749.37 108.65 749.52 108.56 749.57 108.38C749.03 107.87 748.16 107.2 748.16 107.2L747.4 108.14H741.23L742.02 107.07C742.5 107.15 742.69 107.03 742.77 106.86L741.12 106.15C740.87 106.63 740.39 107.38 739.85 108.14H735.62L735.77 108.65H739.47C738.98 109.35 738.45 109.99 738.06 110.42C739.59 110.61 741.02 110.84 742.31 111.11C740.58 112 738.2 112.47 735.22 112.81L735.29 113.12C738.03 112.95 740.19 112.66 741.89 112.14V113.85L734.87 113.83L735.02 114.34H740.92C739.44 116.08 737.13 117.66 734.53 118.7L734.68 118.97C737.57 118.1 740.12 116.78 741.89 115.03V119.29H742.09C742.53 119.29 743.03 119.05 743.03 118.94V114.4C744.47 116.54 746.9 118.12 749.5 118.95C749.64 118.37 750.03 118 750.52 117.92L750.54 117.71C747.99 117.23 745.12 115.98 743.49 114.34H749.73C749.96 114.34 750.13 114.26 750.18 114.07C749.62 113.55 748.72 112.83 748.72 112.83ZM739.59 110.16C739.98 109.7 740.43 109.18 740.83 108.65H745C744.57 109.4 744.01 110.01 743.3 110.5C742.26 110.37 741.04 110.25 739.59 110.16ZM736.79 104.77 736.48 104.79C736.55 105.59 736.09 106.32 735.53 106.59C735.19 106.76 734.95 107.09 735.09 107.43C735.24 107.8 735.8 107.8 736.19 107.6C736.6 107.34 736.94 106.81 736.98 106H748.04C747.8 106.44 747.46 106.95 747.23 107.27L747.43 107.41C748.04 107.14 748.93 106.59 749.4 106.17C749.73 106.15 749.93 106.12 750.05 106.02L748.79 104.81L748.11 105.5H736.94C736.92 105.28 736.87 105.03 736.79 104.77ZM754.6 104.59 754.42 104.71C755 105.3 755.74 106.32 755.96 107.09C757.03 107.85 757.94 105.71 754.6 104.59ZM764.97 106.53 764.29 107.44H761.74C762.41 106.81 763.07 106.03 763.55 105.39C763.87 105.42 764.09 105.3 764.17 105.15L762.66 104.42C762.29 105.37 761.69 106.61 761.22 107.44H758.96C759.31 106.47 759.59 105.49 759.79 104.48C760.28 104.47 760.43 104.37 760.49 104.13L758.63 103.75C758.46 105.01 758.17 106.25 757.75 107.44H752.85L753.01 107.94H757.56C757.27 108.7 756.9 109.45 756.47 110.15H751.85L752 110.64H756.15C755.08 112.22 753.62 113.56 751.68 114.55L751.85 114.75C753.47 114.12 754.76 113.27 755.81 112.29V117.75C755.81 118.75 756.22 118.97 757.95 118.97H760.81C764.65 118.97 765.31 118.8 765.31 118.22C765.31 117.98 765.18 117.86 764.74 117.75L764.7 115.47H764.48C764.26 116.52 764.07 117.35 763.92 117.66C763.8 117.83 763.73 117.9 763.44 117.92C763.09 117.95 762.1 117.97 760.84 117.97H758.02C757.03 117.97 756.93 117.88 756.93 117.56V113.14H761.83C761.79 114.34 761.73 115.09 761.54 115.26C761.44 115.35 761.32 115.38 761.06 115.38C760.74 115.38 759.62 115.3 759.01 115.25L758.99 115.52C759.55 115.6 760.2 115.74 760.42 115.89C760.66 116.06 760.72 116.33 760.72 116.62C761.3 116.62 761.85 116.47 762.17 116.23C762.66 115.86 762.8 114.89 762.85 113.24C763.17 113.21 763.36 113.12 763.46 113L762.25 112.03L761.68 112.63H757.14L755.96 112.14C756.46 111.66 756.88 111.17 757.26 110.64H762.17C762.73 111.78 763.9 113.36 766.61 114.24C766.71 113.68 767.01 113.55 767.52 113.46L767.56 113.26C764.79 112.54 763.31 111.54 762.59 110.64H766.88C767.1 110.64 767.27 110.55 767.32 110.37C766.78 109.84 765.88 109.13 765.88 109.13L765.08 110.15H757.6C758.05 109.45 758.43 108.7 758.75 107.94H765.82C766.04 107.94 766.2 107.85 766.23 107.66C765.77 107.19 764.97 106.53 764.97 106.53ZM772.49 120.96H773.27L778.2 104.88H777.45ZM788.71 104.69 787.16 103.81C786.41 105.18 784.81 107.17 783.37 108.46L783.55 108.68C785.32 107.61 787.07 106.02 788.06 104.84C788.43 104.91 788.6 104.86 788.71 104.69ZM789.78 113.63 789.59 113.77C790.27 114.5 791.17 115.7 791.43 116.61C792.6 117.42 793.45 115.08 789.78 113.63ZM787.36 110.54 786.75 110.3C787.33 109.58 787.84 108.89 788.23 108.29C788.64 108.36 788.79 108.29 788.89 108.11L787.28 107.29C786.51 109.01 784.88 111.59 783.27 113.29L783.45 113.5C784.27 112.88 785.05 112.15 785.76 111.4V119.33H785.97C786.41 119.33 786.84 119.04 786.85 118.94V110.84C787.16 110.79 787.31 110.69 787.36 110.54ZM797.55 111.52 796.78 112.51H795.86V111.37C796.25 111.32 796.42 111.18 796.48 110.94L794.76 110.76V112.51H788.47L788.6 113.02H794.76V117.81C794.76 118.07 794.67 118.19 794.3 118.19C793.89 118.19 791.75 118.03 791.75 118.03V118.29C792.67 118.39 793.18 118.53 793.47 118.7C793.75 118.87 793.87 119.12 793.92 119.41C795.64 119.28 795.86 118.73 795.86 117.86V113.02H798.53C798.77 113.02 798.94 112.93 798.99 112.75C798.43 112.22 797.55 111.52 797.55 111.52ZM796.75 105.61 795.97 106.59H793.7V104.35C794.08 104.28 794.23 104.14 794.26 103.91L792.6 103.74V106.59H788.93L789.06 107.09H792.6V109.75H787.84L787.98 110.25H798.75C798.99 110.25 799.14 110.16 799.19 109.98C798.63 109.45 797.73 108.75 797.73 108.75L796.95 109.75H793.7V107.09H797.75C797.99 107.09 798.16 107 798.21 106.81C797.63 106.29 796.75 105.61 796.75 105.61ZM805.03 113.94V111.49H806.52V113.94ZM804.62 104.23 803.02 103.72C802.46 105.96 801.44 108.09 800.38 109.43L800.62 109.6C800.98 109.3 801.32 108.96 801.66 108.56V111.59C801.66 114.11 801.59 116.86 800.4 119.12L800.66 119.29C801.85 117.9 802.32 116.13 802.53 114.45H804.11V117.59H804.24C804.72 117.59 805.03 117.35 805.03 117.29V114.45H806.52V117.8C806.52 118.02 806.45 118.12 806.18 118.12C805.89 118.12 804.6 118.02 804.6 118.02V118.29C805.2 118.37 805.54 118.49 805.74 118.65C805.93 118.8 805.98 119.05 806.03 119.34C807.36 119.21 807.52 118.73 807.52 117.9V108.94C807.87 108.87 808.15 108.75 808.27 108.6L806.88 107.58L806.35 108.24H804.74C805.43 107.61 806.15 106.66 806.59 106.07C806.91 106.07 807.13 106.05 807.25 105.91L806.08 104.81L805.42 105.47H803.6L803.97 104.55C804.35 104.57 804.55 104.4 804.62 104.23ZM804.11 113.94H802.56C802.65 113.1 802.65 112.29 802.65 111.57V111.49H804.11ZM805.03 111V108.73H806.52V111ZM804.11 111H802.65V108.73H804.11ZM802.17 107.94C802.6 107.34 803 106.68 803.34 105.98H805.4C805.11 106.68 804.69 107.6 804.28 108.24H802.85ZM813.03 110.2 811.38 110.03V112.36H809.48C809.72 111.91 809.92 111.44 810.09 110.94C810.43 110.94 810.62 110.81 810.7 110.61L809.19 110.16C808.88 111.8 808.31 113.34 807.63 114.38L807.88 114.53C808.38 114.09 808.83 113.51 809.21 112.85H811.38V115.26H807.73L807.87 115.76H811.38V119.31H811.61C812.01 119.31 812.47 119.05 812.47 118.9V115.76H815.89C816.13 115.76 816.28 115.67 816.33 115.48C815.82 114.99 815 114.33 815 114.33L814.27 115.26H812.47V112.85H815.43C815.65 112.85 815.8 112.76 815.86 112.58C815.36 112.12 814.58 111.51 814.58 111.51L813.9 112.36H812.47V110.62C812.85 110.57 813 110.42 813.03 110.2ZM811.79 105.03H807.81L807.97 105.52H810.48C810.23 107.46 809.46 108.92 807.71 110.04L807.81 110.28C810.09 109.31 811.28 107.83 811.71 105.52H814.31C814.22 107.32 814.07 108.31 813.81 108.55C813.73 108.65 813.61 108.68 813.34 108.68C813.05 108.68 812.2 108.6 811.67 108.56V108.84C812.15 108.91 812.64 109.04 812.83 109.19C813.03 109.35 813.07 109.65 813.07 109.94C813.61 109.94 814.14 109.79 814.5 109.52C815.04 109.08 815.26 107.94 815.35 105.64C815.68 105.61 815.87 105.52 815.99 105.39L814.75 104.4L814.15 105.03Z"/><!-- 案卷 / 待解 -->
<path fill="#ece7db" d="M738.6 161.84C739.13 161.82 739.26 161.63 739.34 161.4L737.42 160.98C737.29 162.07 736.98 163.72 736.6 165.45H734.74L734.91 166H736.49C736.01 168.07 735.48 170.16 735.06 171.41C735.94 172.04 736.96 172.88 737.91 173.75C737.15 175.42 736.09 176.92 734.57 178.14L734.8 178.41C736.53 177.3 737.74 175.96 738.62 174.44C739.34 175.19 739.99 175.96 740.37 176.64C741.45 177.28 742.3 175.69 739.17 173.35C740.17 171.13 740.59 168.64 740.84 166.15C741.24 166.11 741.41 166.07 741.54 165.9L740.19 164.67L739.47 165.45H737.8C738.14 164.06 738.41 162.79 738.6 161.84ZM747.95 161.21 746.12 161V166.34L743.77 167.33V164.33C744.22 164.27 744.39 164.08 744.43 163.83L742.61 163.6V167.82L740.78 168.58L741.16 169.02L742.61 168.41V176.32C742.61 177.51 743.16 177.87 744.96 177.87H747.7C751.56 177.87 752.32 177.72 752.32 177.08C752.32 176.83 752.2 176.7 751.71 176.54L751.67 173.75H751.42C751.18 175.06 750.91 176.15 750.76 176.47C750.66 176.64 750.53 176.7 750.26 176.73C749.88 176.77 748.97 176.79 747.72 176.79H745.06C743.96 176.79 743.77 176.6 743.77 176.07V167.94L746.12 166.95V174.93H746.35C746.79 174.93 747.26 174.64 747.26 174.47V166.47L749.96 165.33C749.94 169.82 749.87 171.6 749.56 171.95C749.47 172.06 749.37 172.12 749.09 172.12C748.8 172.12 748.14 172.06 747.7 172.02L747.68 172.36C748.12 172.44 748.5 172.55 748.67 172.72C748.88 172.91 748.91 173.22 748.91 173.56C749.49 173.56 750.04 173.39 750.42 172.99C750.99 172.34 751.08 170.62 751.12 165.6C751.5 165.56 751.71 165.47 751.84 165.31L750.43 164.18L749.92 164.75L747.26 165.87V161.74C747.76 161.67 747.91 161.48 747.95 161.21ZM736.13 171.51C736.64 169.93 737.21 167.9 737.67 166H739.61C739.43 168.35 739.09 170.67 738.31 172.74C737.71 172.34 736.98 171.95 736.13 171.51ZM760.35 171.45 760.2 171.66C761.19 172.19 762.5 173.26 762.98 174.13C764.32 174.78 764.78 172.08 760.35 171.45ZM760.79 167.06 760.62 167.27C761.59 167.78 762.84 168.79 763.3 169.61C764.57 170.22 765.03 167.67 760.79 167.06ZM769.64 169.15 768.79 170.25H768.07C768.12 169.17 768.18 167.96 768.22 166.63C768.64 166.61 768.88 166.49 769.02 166.34L767.55 165.11L766.81 165.92H759.33L757.77 165.16C757.65 166.49 757.41 168.39 757.12 170.25H753.82L753.99 170.81H757.03C756.8 172.21 756.55 173.56 756.34 174.55C756.08 174.64 755.77 174.78 755.6 174.91L756.99 175.96L757.58 175.29H766.24C766.07 176.01 765.88 176.49 765.67 176.68C765.45 176.87 765.27 176.92 764.91 176.92C764.5 176.92 763.22 176.81 762.44 176.73V177.08C763.13 177.19 763.89 177.38 764.15 177.59C764.42 177.8 764.48 178.12 764.48 178.48C765.33 178.48 766.09 178.25 766.62 177.66C766.98 177.27 767.27 176.49 767.5 175.29H770.27C770.54 175.29 770.71 175.19 770.76 174.99C770.16 174.4 769.21 173.64 769.21 173.64L768.37 174.72H767.61C767.78 173.68 767.91 172.36 768.03 170.81H770.71C770.97 170.81 771.14 170.71 771.2 170.5C770.61 169.93 769.64 169.15 769.64 169.15ZM757.56 174.72C757.77 173.6 758.02 172.21 758.26 170.81H766.79C766.68 172.42 766.53 173.73 766.36 174.72ZM758.34 170.25C758.57 168.89 758.78 167.56 758.91 166.49H767C766.97 167.86 766.89 169.13 766.83 170.25ZM768.81 162.28 767.88 163.43H758.68C758.95 163 759.21 162.52 759.44 162.05C759.86 162.1 760.09 161.95 760.18 161.74L758.3 160.96C757.39 163.62 755.85 166.07 754.35 167.56L754.6 167.77C755.96 166.87 757.26 165.58 758.32 163.99H770.02C770.27 163.99 770.46 163.89 770.52 163.68C769.83 163.05 768.81 162.28 768.81 162.28ZM787.24 161.67 786.25 162.88H774.32L774.45 163.43H780.59C780.57 165.18 780.57 166.8 780.4 168.32H773.16L773.29 168.89H780.32C779.81 172.71 778.14 175.78 772.66 178.2L772.91 178.54C779.22 176.24 781.08 173.05 781.67 168.89C782.26 172.23 783.84 176.07 789.08 178.48C789.23 177.8 789.69 177.55 790.35 177.47L790.39 177.27C784.84 175.14 782.77 171.97 782.05 168.89H789.67C789.92 168.89 790.11 168.79 790.16 168.6C789.48 167.92 788.36 167.1 788.36 167.1L787.37 168.32H781.75C781.92 166.82 781.96 165.18 781.99 163.43H788.53C788.78 163.43 788.97 163.34 789.02 163.15C788.34 162.48 787.24 161.67 787.24 161.67ZM799.13 170.5V173.01H795.03V170.67L795.24 170.5ZM800.75 161.71C800.44 162.43 800.06 163.17 799.64 163.93L798.47 162.92L797.65 164H796.61V161.9C797.06 161.84 797.25 161.65 797.29 161.38L795.39 161.19V164H792.25L792.41 164.56H795.39V167.22H791.66L791.82 167.77H796.95C796.32 168.49 795.65 169.21 794.95 169.88L793.87 169.42V170.82C793.09 171.47 792.29 172.06 791.44 172.59L791.65 172.82C792.42 172.42 793.17 171.98 793.87 171.51V178.35H794.06C794.63 178.35 795.03 178.04 795.03 177.93V176.72H799.13V178.04H799.32C799.72 178.04 800.33 177.74 800.35 177.63V170.73C800.71 170.65 801.01 170.5 801.13 170.35L799.64 169.19L798.94 169.95H795.92C796.74 169.25 797.48 168.53 798.16 167.77H801.75C802 167.77 802.17 167.67 802.23 167.46C801.66 166.89 800.67 166.13 800.67 166.13L799.82 167.22H798.66C799.91 165.73 800.94 164.18 801.68 162.73C802.13 162.83 802.34 162.75 802.46 162.54ZM795.03 173.58H799.13V176.16H795.03ZM796.61 164.56H799.26C798.71 165.45 798.09 166.34 797.4 167.22H796.61ZM802.72 162.54V178.48H802.89C803.52 178.48 803.94 178.14 803.94 178.04V163.09H807.23C806.69 164.69 805.86 167.06 805.33 168.32C806.98 169.88 807.62 171.41 807.62 172.84C807.62 173.64 807.42 174.07 807.02 174.28C806.85 174.38 806.71 174.4 806.5 174.4C806.12 174.4 805.23 174.4 804.72 174.4V174.7C805.23 174.76 805.69 174.85 805.86 174.99C806.03 175.14 806.12 175.54 806.12 175.96C808.14 175.84 808.88 174.95 808.86 173.1C808.86 171.57 808.04 169.88 805.78 168.26C806.66 167.04 807.93 164.69 808.59 163.41C809.05 163.41 809.32 163.38 809.47 163.21L808 161.76L807.19 162.54H804.17L802.72 161.8ZM822.56 161.55 820.49 161.08C819.98 164.78 818.84 168.45 817.5 170.94L817.79 171.11C818.63 170.12 819.39 168.93 820.01 167.56C820.47 169.88 821.15 171.98 822.24 173.77C821.04 175.5 819.42 176.98 817.26 178.24L817.45 178.5C819.75 177.47 821.5 176.2 822.83 174.66C823.93 176.2 825.37 177.49 827.29 178.46C827.46 177.85 827.92 177.55 828.49 177.47L828.54 177.28C826.42 176.45 824.78 175.25 823.53 173.77C825.09 171.59 825.94 168.96 826.4 165.92H827.9C828.16 165.92 828.35 165.83 828.39 165.62C827.78 165.03 826.78 164.25 826.78 164.25L825.87 165.37H820.91C821.29 164.29 821.61 163.15 821.88 161.97C822.29 161.95 822.5 161.78 822.56 161.55ZM820.7 165.92H824.97C824.67 168.51 824 170.82 822.83 172.86C821.63 171.15 820.85 169.13 820.32 166.89ZM817.62 161.34 815.76 161.13V171.95L813 172.76V163.81C813.44 163.74 813.65 163.57 813.69 163.3L811.8 163.07V172.48C811.8 172.82 811.73 172.95 811.18 173.22L811.86 174.68C812 174.62 812.17 174.49 812.28 174.26C813.59 173.62 814.85 172.95 815.76 172.46V178.46H815.99C816.46 178.46 816.97 178.16 816.97 177.95V161.84C817.43 161.8 817.58 161.59 817.62 161.34ZM846.99 161.63 845.09 161.42V176.56C845.09 176.87 845 176.98 844.64 176.98C844.26 176.98 842.36 176.83 842.36 176.83V177.11C843.17 177.23 843.65 177.38 843.93 177.59C844.2 177.82 844.29 178.14 844.35 178.52C846.08 178.35 846.29 177.68 846.29 176.7V162.14C846.75 162.09 846.94 161.91 846.99 161.63ZM843.4 163.11 841.52 162.9V174.45H841.77C842.21 174.45 842.72 174.19 842.72 174.04V163.6C843.19 163.55 843.36 163.38 843.4 163.11ZM838.98 161.67 838.1 162.79H829.93L830.08 163.36H834.15C833.58 164.52 832.1 166.65 830.92 167.5C830.79 167.58 830.42 167.63 830.42 167.63L831.22 169.34C831.36 169.29 831.51 169.15 831.6 168.94C834.26 168.49 836.71 167.97 838.44 167.61C838.65 168.03 838.78 168.45 838.84 168.83C840.13 169.86 841.12 166.76 836.6 164.76L836.37 164.94C837.04 165.52 837.76 166.38 838.25 167.25C835.59 167.48 833.1 167.67 831.62 167.77C832.95 166.82 834.41 165.41 835.27 164.35C835.69 164.4 835.92 164.23 836.01 164.04L834.32 163.36H840.1C840.36 163.36 840.57 163.26 840.61 163.05C840 162.47 838.98 161.67 838.98 161.67ZM838.4 170.33 837.53 171.45H835.57V169.44C836.05 169.38 836.22 169.21 836.26 168.94L834.34 168.75V171.45H830.31L830.46 172H834.34V175.73C832.36 176.07 830.75 176.35 829.8 176.47L830.58 178.16C830.75 178.1 830.94 177.95 831.03 177.72C835.29 176.56 838.37 175.61 840.63 174.89L840.55 174.57L835.57 175.5V172H839.51C839.77 172 839.94 171.91 840 171.7C839.41 171.13 838.4 170.33 838.4 170.33ZM863.98 167.23 862.78 168.81H848.91L849.1 169.44H865.63C865.94 169.44 866.16 169.38 866.22 169.15C865.37 168.35 863.98 167.23 863.98 167.23ZM877.62 168.01 877.37 168.13C878.06 169.21 878.76 170.94 878.72 172.27C879.94 173.49 881.27 170.52 877.62 168.01ZM881.67 161.32V165.68H876.2L876.35 166.23H881.67V176.49C881.67 176.81 881.55 176.92 881.19 176.92C880.76 176.92 878.61 176.75 878.61 176.75V177.06C879.52 177.17 880.05 177.32 880.38 177.55C880.64 177.76 880.77 178.08 880.83 178.48C882.69 178.29 882.9 177.63 882.9 176.62V166.23H885.01C885.26 166.23 885.43 166.13 885.49 165.92C884.92 165.33 883.97 164.54 883.97 164.54L883.13 165.68H882.9V162.05C883.36 161.99 883.55 161.8 883.61 161.53ZM871.52 161.27V164.25H868.27L868.42 164.8H871.52V168.07H867.76L867.91 168.64H876.52C876.75 168.64 876.94 168.54 876.99 168.34C876.4 167.77 875.42 167.01 875.42 167.01L874.58 168.07H872.76V164.8H876.06C876.33 164.8 876.5 164.71 876.56 164.5C875.97 163.95 875.02 163.19 875.02 163.19L874.16 164.25H872.76V162.01C873.21 161.91 873.4 161.72 873.44 161.46ZM871.52 169.08V171.79H868.1L868.25 172.34H871.52V175.78C869.87 176.05 868.5 176.24 867.68 176.34L868.52 178.04C868.71 178.01 868.9 177.85 868.98 177.63C872.64 176.6 875.26 175.78 877.13 175.16L877.07 174.87L872.76 175.59V172.34H876.18C876.44 172.34 876.63 172.25 876.67 172.04C876.08 171.47 875.11 170.69 875.11 170.69L874.24 171.79H872.76V169.8C873.23 169.72 873.42 169.55 873.46 169.27ZM888.09 173.12C887.88 173.12 887.25 173.12 887.25 173.12V173.54C887.65 173.58 887.94 173.64 888.18 173.81C888.62 174.09 888.74 175.57 888.47 177.53C888.53 178.12 888.75 178.48 889.1 178.48C889.76 178.48 890.12 177.97 890.16 177.15C890.24 175.57 889.69 174.76 889.67 173.88C889.65 173.41 889.8 172.78 889.99 172.16C890.27 171.17 892.17 166.21 893.14 163.55L892.78 163.43C888.95 172.02 888.95 172.02 888.58 172.72C888.39 173.12 888.32 173.12 888.09 173.12ZM886.95 165.56 886.78 165.73C887.63 166.28 888.66 167.29 888.95 168.15C890.35 168.93 891.09 166.11 886.95 165.56ZM888.22 161.31 888.05 161.48C888.98 162.05 890.16 163.17 890.54 164.08C892 164.84 892.67 161.9 888.22 161.31ZM894.59 161.84V163.72C894.59 165.54 894.21 167.58 891.95 169.21L892.14 169.46C895.44 167.92 895.8 165.45 895.8 163.7V162.6H899.57V166.72C899.57 167.56 899.74 167.84 900.82 167.84H901.88C903.75 167.84 904.2 167.61 904.2 167.1C904.2 166.82 904.05 166.72 903.67 166.59L903.61 166.57H903.42C903.33 166.61 903.2 166.63 903.08 166.65C903.02 166.66 902.89 166.66 902.82 166.66C902.66 166.66 902.34 166.68 902 166.68H901.16C900.8 166.68 900.76 166.61 900.76 166.4V162.75C901.11 162.71 901.35 162.64 901.49 162.5L900.1 161.31L899.39 162.03H896.03L894.59 161.4ZM897.08 174.99C895.42 176.35 893.33 177.44 890.85 178.2L891 178.5C893.75 177.87 895.98 176.91 897.74 175.63C899.22 176.92 901.09 177.82 903.37 178.44C903.58 177.82 903.99 177.42 904.58 177.34L904.6 177.11C902.3 176.68 900.31 175.97 898.67 174.89C900.19 173.58 901.33 172 902.15 170.2C902.61 170.18 902.82 170.14 902.97 169.97L901.6 168.68L900.74 169.46H892.61L892.78 170.03H894.36C894.95 172.08 895.84 173.69 897.08 174.99ZM897.84 174.28C896.49 173.2 895.44 171.79 894.8 170.03H900.74C900.08 171.64 899.11 173.07 897.84 174.28ZM913.04 161.02C912.75 161.99 912.37 163.02 911.9 164.04H905.91L906.08 164.59H911.63C910.3 167.27 908.33 169.91 905.78 171.74L905.99 171.98C907.66 171.05 909.1 169.84 910.3 168.51V178.48H910.49C911.08 178.48 911.5 178.16 911.5 178.04V173.85H918.91V176.49C918.91 176.79 918.83 176.91 918.45 176.91C918.05 176.91 916.08 176.75 916.08 176.75V177.06C916.93 177.17 917.43 177.32 917.71 177.53C917.98 177.74 918.07 178.08 918.13 178.48C919.95 178.31 920.16 177.65 920.16 176.66V168.18C920.58 168.11 920.9 167.94 921.05 167.77L919.36 166.51L918.7 167.35H911.75L911.38 167.2C912.01 166.34 912.58 165.47 913.06 164.59H922.67C922.94 164.59 923.13 164.5 923.18 164.29C922.52 163.7 921.45 162.88 921.45 162.88L920.52 164.04H913.34C913.7 163.34 914.01 162.64 914.27 161.95C914.77 161.99 914.94 161.88 915.01 161.63ZM911.5 170.86H918.91V173.29H911.5ZM911.5 170.31V167.9H918.91V170.31ZM932.3 161.06 932.11 161.19C932.8 161.78 933.46 162.83 933.58 163.68C934.89 164.65 936.08 161.91 932.3 161.06ZM927.21 163.07 926.89 163.09C926.98 164.33 926.24 165.43 925.5 165.83C925.06 166.07 924.8 166.47 924.97 166.91C925.2 167.41 925.92 167.41 926.41 167.06C926.96 166.68 927.48 165.87 927.48 164.63H939.88C939.64 165.35 939.24 166.25 938.93 166.85L939.2 166.99C939.94 166.44 940.95 165.52 941.48 164.86C941.88 164.84 942.09 164.8 942.22 164.69L940.72 163.22L939.87 164.06H927.42C927.38 163.76 927.33 163.41 927.21 163.07ZM940.42 170.39 939.47 171.57H934.11V169.89C934.54 169.84 934.74 169.69 934.77 169.4C936.03 168.87 937.26 168.15 938.19 167.52C938.57 167.5 938.8 167.46 938.95 167.33L937.45 165.96L936.6 166.82H928.09L928.26 167.39H936.33C935.76 168.01 934.96 168.77 934.16 169.32L932.85 169.19V171.57H924.89L925.06 172.14H932.85V176.56C932.85 176.87 932.74 176.98 932.36 176.98C931.9 176.98 929.59 176.81 929.59 176.81V177.11C930.57 177.23 931.12 177.36 931.47 177.57C931.75 177.8 931.87 178.1 931.96 178.48C933.88 178.29 934.11 177.66 934.11 176.66V172.14H941.61C941.88 172.14 942.07 172.04 942.13 171.83C941.46 171.22 940.42 170.39 940.42 170.39ZM953.36 168.35 953.15 168.49C954.1 169.5 955.24 171.15 955.45 172.44C956.83 173.5 957.93 170.41 953.36 168.35ZM949.33 161.55 947.33 161.1C947.16 162.1 946.84 163.47 946.61 164.44H945.98L944.71 163.83V177.89H944.92C945.45 177.89 945.89 177.61 945.89 177.46V175.9H949.86V177.34H950.03C950.47 177.34 951.04 177.02 951.06 176.89V165.24C951.44 165.16 951.76 165.01 951.87 164.86L950.37 163.68L949.67 164.44H947.26C947.69 163.68 948.24 162.69 948.62 161.95C949 161.95 949.25 161.82 949.33 161.55ZM949.86 165.01V169.76H945.89V165.01ZM945.89 170.31H949.86V175.35H945.89ZM956.41 161.67 954.46 161.1C953.83 164.02 952.63 166.93 951.42 168.81L951.68 169C952.73 167.96 953.66 166.57 954.46 164.99H959.09C958.96 171.49 958.67 175.82 957.97 176.53C957.76 176.73 957.61 176.79 957.23 176.79C956.79 176.79 955.43 176.66 954.55 176.56L954.53 176.91C955.31 177.04 956.13 177.27 956.41 177.47C956.7 177.68 956.79 178.04 956.79 178.44C957.71 178.44 958.47 178.18 958.98 177.53C959.89 176.43 960.21 172.19 960.35 165.16C960.78 165.12 961.01 165.03 961.16 164.86L959.66 163.59L958.88 164.44H954.72C955.08 163.68 955.41 162.86 955.69 162.05C956.11 162.07 956.34 161.88 956.41 161.67ZM972.49 160.87 972.3 161C973.08 161.74 973.97 163.02 974.12 164.04C975.39 164.99 976.44 162.2 972.49 160.87ZM977.69 168.64 976.9 169.7H969.24L969.39 170.27H978.74C978.99 170.27 979.16 170.18 979.21 169.97C978.64 169.4 977.69 168.64 977.69 168.64ZM977.71 166.06 976.9 167.1H969.22L969.37 167.67H978.74C978.99 167.67 979.18 167.58 979.23 167.37C978.64 166.8 977.71 166.06 977.71 166.06ZM978.8 163.32 977.9 164.46H967.93L968.08 165.03H979.94C980.18 165.03 980.37 164.94 980.43 164.73C979.82 164.14 978.8 163.32 978.8 163.32ZM967.09 166.38 966.35 166.09C967.03 164.82 967.62 163.45 968.14 162.05C968.55 162.07 968.78 161.9 968.86 161.71L966.86 161.08C965.89 164.75 964.22 168.47 962.61 170.82L962.87 171.01C963.73 170.16 964.55 169.12 965.29 167.94V178.48H965.51C965.99 178.48 966.5 178.18 966.52 178.06V166.72C966.85 166.66 967.03 166.55 967.09 166.38ZM970.78 178.08V177.04H977.31V178.25H977.5C977.92 178.25 978.53 177.97 978.55 177.85V172.97C978.91 172.91 979.21 172.76 979.33 172.63L977.81 171.45L977.12 172.21H970.89L969.56 171.62V178.5H969.75C970.26 178.5 970.78 178.22 970.78 178.08ZM977.31 172.78V176.47H970.78V172.78ZM984.48 178.56C985.94 178.56 987.14 177.34 987.14 175.88C987.14 174.42 985.94 173.22 984.48 173.22C983.01 173.22 981.8 174.42 981.8 175.88C981.8 177.34 983.01 178.56 984.48 178.56ZM984.48 177.91C983.34 177.91 982.44 177 982.44 175.88C982.44 174.76 983.34 173.87 984.48 173.87C985.6 173.87 986.49 174.76 986.49 175.88C986.49 177 985.6 177.91 984.48 177.91Z"/><!-- 她每天都收到一封没有字的信。 -->
<path fill="#a8a191" d="M747.54 188 746.72 189.02H742.1L742.59 187.12C742.93 187.09 743.12 186.96 743.17 186.72L741.42 186.46L741.1 189.02H735.02L735.17 189.49H741.04L740.78 191.15H738.77L737.54 190.62V200.14H734.74L734.88 200.62H749.04C749.26 200.62 749.42 200.54 749.47 200.37C748.9 199.84 747.95 199.12 747.95 199.12L747.14 200.14H746.56V191.78C746.96 191.73 747.17 191.65 747.28 191.49L745.87 190.43L745.31 191.15H741.47L741.97 189.49H748.66C748.88 189.49 749.04 189.41 749.09 189.23C748.5 188.7 747.54 188 747.54 188ZM738.58 200.14V198.38H745.49V200.14ZM738.58 197.9V196.11H745.49V197.9ZM738.58 195.65V193.84H745.49V195.65ZM738.58 193.38V191.63H745.49V193.38ZM765.15 187.06 763.55 186.88V199.63C763.55 199.89 763.47 199.98 763.17 199.98C762.85 199.98 761.25 199.86 761.25 199.86V200.1C761.94 200.19 762.34 200.32 762.58 200.5C762.8 200.69 762.88 200.96 762.93 201.28C764.38 201.14 764.56 200.58 764.56 199.74V187.49C764.94 187.44 765.1 187.3 765.15 187.06ZM762.13 188.3 760.54 188.13V197.86H760.75C761.12 197.86 761.55 197.63 761.55 197.5V188.72C761.95 188.67 762.1 188.53 762.13 188.3ZM758.4 187.09 757.66 188.03H750.78L750.91 188.51H754.34C753.86 189.49 752.61 191.28 751.62 192C751.5 192.06 751.2 192.11 751.2 192.11L751.87 193.55C751.98 193.5 752.11 193.39 752.19 193.22C754.43 192.83 756.5 192.4 757.95 192.1C758.13 192.45 758.24 192.8 758.29 193.12C759.38 193.98 760.21 191.38 756.4 189.7L756.21 189.84C756.77 190.34 757.38 191.06 757.79 191.79C755.55 191.98 753.46 192.14 752.21 192.22C753.33 191.42 754.56 190.24 755.28 189.34C755.63 189.39 755.82 189.25 755.9 189.09L754.48 188.51H759.34C759.57 188.51 759.74 188.43 759.78 188.26C759.26 187.76 758.4 187.09 758.4 187.09ZM757.92 194.38 757.18 195.33H755.54V193.63C755.94 193.58 756.08 193.44 756.11 193.22L754.5 193.06V195.33H751.1L751.23 195.79H754.5V198.93C752.83 199.22 751.47 199.46 750.67 199.55L751.33 200.98C751.47 200.93 751.63 200.8 751.71 200.61C755.3 199.63 757.89 198.83 759.79 198.22L759.73 197.95L755.54 198.74V195.79H758.85C759.07 195.79 759.22 195.71 759.26 195.54C758.77 195.06 757.92 194.38 757.92 194.38ZM766.66 195.66 766.78 196.13H772.26C770.94 197.9 768.86 199.55 766.45 200.62L766.59 200.88C769.44 199.94 771.87 198.46 773.44 196.54V201.25H773.62C774.14 201.25 774.5 200.98 774.5 200.9V196.13H774.62C775.94 198.29 778.16 199.95 780.56 200.82C780.69 200.27 781.07 199.94 781.52 199.86L781.54 199.68C779.18 199.14 776.54 197.81 775.06 196.13H780.91C781.14 196.13 781.3 196.05 781.34 195.87C780.77 195.34 779.86 194.67 779.86 194.67L779.06 195.66H774.5V193.79H776.46V194.59H776.66C777.07 194.59 777.52 194.37 777.52 194.24V188.99H780.83C781.06 188.99 781.22 188.91 781.26 188.75C780.72 188.26 779.86 187.58 779.86 187.58L779.1 188.54H777.52V187.17C777.92 187.1 778.05 186.96 778.1 186.74L776.46 186.58V188.54H771.46V187.17C771.86 187.12 771.98 186.96 772.03 186.74L770.42 186.58V188.54H766.77L766.91 188.99H770.42V194.7H770.62C771.01 194.7 771.46 194.46 771.46 194.35V193.79H773.44V195.66ZM771.46 188.99H776.46V190.88H771.46ZM771.46 191.33H776.46V193.31H771.46ZM794.83 187.09 794 188.11H783.95L784.06 188.58H789.23C789.22 190.05 789.22 191.41 789.07 192.69H782.98L783.09 193.17H789.01C788.58 196.38 787.17 198.98 782.56 201.01L782.77 201.3C788.08 199.36 789.65 196.67 790.14 193.17C790.64 195.98 791.97 199.22 796.38 201.25C796.51 200.67 796.9 200.46 797.46 200.4L797.49 200.22C792.82 198.43 791.07 195.76 790.46 193.17H796.88C797.09 193.17 797.25 193.09 797.3 192.93C796.72 192.35 795.78 191.66 795.78 191.66L794.94 192.69H790.21C790.35 191.42 790.38 190.05 790.42 188.58H795.92C796.13 188.58 796.29 188.5 796.34 188.34C795.76 187.78 794.83 187.09 794.83 187.09ZM800.85 200.35C800.16 200.11 799.49 199.84 799.49 199.07C799.49 198.56 799.87 198.11 800.5 198.11C801.25 198.11 801.63 198.7 801.63 199.55C801.63 200.69 801.07 202.3 799.49 203.12L799.26 202.72C800.4 202.06 800.78 201.07 800.85 200.35ZM822.83 186.42 822.67 186.53C823.33 187.15 824.08 188.22 824.21 189.09C825.28 189.89 826.16 187.54 822.83 186.42ZM827.22 192.96 826.54 193.86H820.1L820.22 194.34H828.1C828.3 194.34 828.45 194.26 828.5 194.08C828.02 193.6 827.22 192.96 827.22 192.96ZM827.23 190.78 826.54 191.66H820.08L820.21 192.14H828.1C828.3 192.14 828.46 192.06 828.51 191.89C828.02 191.41 827.23 190.78 827.23 190.78ZM828.14 188.48 827.39 189.44H818.99L819.12 189.92H829.1C829.31 189.92 829.47 189.84 829.52 189.66C829.01 189.17 828.14 188.48 828.14 188.48ZM818.29 191.06 817.66 190.82C818.24 189.74 818.74 188.59 819.17 187.41C819.52 187.42 819.71 187.28 819.78 187.12L818.1 186.59C817.28 189.68 815.87 192.82 814.51 194.8L814.74 194.96C815.46 194.24 816.14 193.36 816.77 192.37V201.25H816.96C817.36 201.25 817.79 200.99 817.81 200.9V191.34C818.08 191.3 818.24 191.2 818.29 191.06ZM821.39 200.91V200.03H826.9V201.06H827.06C827.41 201.06 827.92 200.82 827.94 200.72V196.61C828.24 196.56 828.5 196.43 828.59 196.32L827.31 195.33L826.74 195.97H821.49L820.37 195.47V201.26H820.53C820.96 201.26 821.39 201.02 821.39 200.91ZM826.9 196.45V199.55H821.39V196.45ZM839.33 191.52 839.17 191.71C840.9 192.72 843.33 194.56 844.22 195.97C845.7 196.59 845.84 193.62 839.33 191.52ZM830.83 187.95 830.96 188.42H838.43C836.98 191.3 833.84 194.37 830.56 196.32L830.7 196.54C833.23 195.33 835.58 193.63 837.46 191.66V201.2H837.65C838.03 201.2 838.5 200.96 838.51 200.88V191.39C838.78 191.34 838.94 191.25 839.01 191.1L838.22 190.82C838.88 190.05 839.46 189.23 839.94 188.42H844.75C844.98 188.42 845.15 188.34 845.18 188.16C844.59 187.63 843.63 186.9 843.63 186.9L842.78 187.95ZM847.02 187.9 847.17 188.38H853.39V190.46H850.08L848.85 189.94V196.35H846.56L846.69 196.83H848.85V201.25H849.01C849.55 201.25 849.9 200.98 849.9 200.88V196.83H858.08V199.52C858.08 199.79 858 199.9 857.66 199.9C857.25 199.9 855.26 199.74 855.26 199.74V200.02C856.11 200.11 856.61 200.26 856.9 200.43C857.14 200.61 857.23 200.9 857.3 201.25C858.96 201.07 859.15 200.5 859.15 199.68V196.83H861.09C861.31 196.83 861.46 196.75 861.49 196.58C861.02 196.1 860.21 195.44 860.21 195.44L859.5 196.35H859.15V191.22C859.52 191.14 859.84 190.99 859.97 190.85L858.48 189.74L857.9 190.46H854.43V188.38H860.62C860.85 188.38 861.01 188.3 861.06 188.13C860.5 187.62 859.58 186.93 859.58 186.93L858.82 187.9ZM858.08 196.35H854.43V193.84H858.08ZM858.08 193.38H854.43V190.94H858.08ZM849.9 196.35V193.84H853.39V196.35ZM849.9 193.38V190.94H853.39V193.38ZM865.5 189.9 865.31 190C865.92 190.83 866.62 192.11 866.69 193.14C867.76 194.1 868.8 191.66 865.5 189.9ZM873.46 189.92C872.96 191.18 872.26 192.51 871.71 193.33L871.94 193.49C872.75 192.86 873.68 191.86 874.4 190.86C874.72 190.93 874.94 190.8 875.02 190.62ZM869.42 186.59V189.14H863.52L863.65 189.62H869.42V193.81H862.74L862.88 194.27H868.66C867.34 196.5 865.1 198.74 862.56 200.22L862.72 200.48C865.49 199.22 867.84 197.36 869.42 195.15V201.25H869.63C870.03 201.25 870.48 200.98 870.48 200.82V194.48C871.79 197.09 874.05 199.15 876.45 200.27C876.58 199.78 876.96 199.44 877.41 199.38L877.42 199.22C874.94 198.38 872.22 196.48 870.75 194.27H876.82C877.06 194.27 877.2 194.19 877.25 194.03C876.66 193.49 875.73 192.8 875.73 192.8L874.91 193.81H870.48V189.62H876.13C876.35 189.62 876.5 189.54 876.54 189.36C875.98 188.83 875.09 188.16 875.09 188.16L874.27 189.14H870.48V187.22C870.9 187.15 871.02 186.99 871.07 186.77ZM879.76 187.87 879.9 188.35H890.26C889.33 189.26 887.87 190.5 886.58 191.34L885.47 191.22V199.55C885.47 199.82 885.36 199.94 885.01 199.94C884.58 199.94 882.27 199.78 882.27 199.78V200.03C883.23 200.13 883.78 200.26 884.1 200.45C884.38 200.62 884.5 200.9 884.56 201.23C886.32 201.06 886.54 200.5 886.54 199.63V191.82C886.91 191.78 887.07 191.63 887.1 191.41L887.01 191.39C888.75 190.58 890.64 189.36 891.87 188.5C892.26 188.48 892.45 188.45 892.59 188.34L891.31 187.15L890.54 187.87ZM896.93 201.31C898.16 201.31 899.17 200.29 899.17 199.06C899.17 197.82 898.16 196.82 896.93 196.82C895.7 196.82 894.67 197.82 894.67 199.06C894.67 200.29 895.7 201.31 896.93 201.31ZM896.93 200.77C895.97 200.77 895.22 200 895.22 199.06C895.22 198.11 895.97 197.36 896.93 197.36C897.87 197.36 898.62 198.11 898.62 199.06C898.62 200 897.87 200.77 896.93 200.77Z"/><!-- 直到某天，信不再来了。 -->
<rect x="734" y="265" width="40" height="30" fill="none" stroke="#7fb98f"/>
<path fill="#7fb98f" d="M758.21 276.53V278.43H750.93V276.53ZM758.21 276.04H750.93V274.18H758.21ZM749.79 273.69V279.83H749.96C750.42 279.83 750.93 279.59 750.93 279.47V278.93H758.21V279.67H758.39C758.77 279.67 759.33 279.42 759.35 279.32V274.4C759.7 274.33 759.97 274.2 760.08 274.06L758.68 272.99L758.04 273.69H751.01L749.79 273.13ZM750.54 281.76C750.06 283.99 748.92 286.56 746.61 288.12L746.78 288.33C748.67 287.41 749.93 286.06 750.74 284.64C751.9 287.34 753.62 287.92 756.74 287.92C757.97 287.92 760.64 287.92 761.73 287.92C761.76 287.49 761.98 287.17 762.39 287.1V286.86C761.06 286.9 758.07 286.9 756.79 286.9C756.18 286.9 755.61 286.88 755.1 286.85V283.77H760.28C760.52 283.77 760.69 283.69 760.74 283.5C760.16 282.95 759.23 282.22 759.23 282.22L758.41 283.28H755.1V280.91H761.78C762.01 280.91 762.17 280.83 762.22 280.66C761.64 280.12 760.71 279.38 760.71 279.38L759.89 280.42H746.78L746.93 280.91H753.96V286.68C752.6 286.39 751.64 285.73 750.93 284.28C751.24 283.7 751.47 283.11 751.64 282.53C752.02 282.55 752.22 282.41 752.31 282.19Z"/><!-- 是 -->
<rect x="795" y="265" width="40" height="30" fill="none" stroke="#e0736a"/>
<path fill="#e0736a" d="M817.25 276.61 817.17 276.87C819.22 277.67 821.09 279.2 821.91 280.37C822.96 281.24 823.52 280.01 822.28 278.91C821.28 277.99 819.51 277.17 817.25 276.61ZM808.09 273.98 808.24 274.47H815.36C813.83 276.95 810.72 279.54 807.56 281.13L807.7 281.37C810.32 280.32 812.9 278.77 814.9 276.92V281.37H815.11C815.53 281.37 816.01 281.1 816.03 281V276.39C816.3 276.34 816.49 276.24 816.54 276.09L815.94 275.88C816.35 275.42 816.74 274.95 817.06 274.47H822.49C822.73 274.47 822.91 274.39 822.96 274.2C822.33 273.67 821.35 272.94 821.35 272.94L820.48 273.98ZM819.46 282.38V286.51H811.66V282.38ZM810.55 281.9V288.29H810.74C811.18 288.29 811.66 288.04 811.66 287.92V287H819.46V288.22H819.63C819.99 288.22 820.55 287.97 820.57 287.87V282.61C820.92 282.55 821.2 282.39 821.31 282.26L819.9 281.19L819.27 281.9H811.74L810.55 281.34Z"/><!-- 否 -->
<rect x="856" y="265" width="40" height="30" fill="none" stroke="#d8ae62"/>
<path fill="#d8ae62" d="M870.84 273.45 870.65 273.59C871.5 274.61 872.52 276.24 872.69 277.51C873.95 278.53 874.95 275.64 870.84 273.45ZM880.9 273.28C880.27 274.91 879.37 276.65 878.64 277.74L878.88 277.9C879.92 277.02 881.07 275.68 881.97 274.3C882.33 274.35 882.57 274.22 882.65 274.03ZM875.89 272.77V278.47H869.77L869.92 278.96H875.89V282.39H868.7L868.85 282.9H875.89V288.34H876.11C876.53 288.34 877.03 288.05 877.03 287.88V282.9H883.91C884.15 282.9 884.32 282.82 884.35 282.63C883.73 282.04 882.69 281.27 882.69 281.27L881.79 282.39H877.03V278.96H882.89C883.15 278.96 883.32 278.87 883.35 278.69C882.76 278.14 881.77 277.39 881.77 277.39L880.9 278.47H877.03V273.43C877.47 273.37 877.61 273.18 877.64 272.94Z"/><!-- 半 -->
<g transform="rotate(-10 1040 266)"><rect x="988" y="228" width="111" height="70" fill="#1f1d18" stroke="#e0736a" stroke-width="3"/><rect x="994" y="234" width="99" height="58" fill="none" stroke="#e0736a"/>
<path fill="#e0736a" d="M1007.06 266.08 1006.88 266.24C1007.8 267.04 1008.78 268.44 1009 269.64C1010.84 270.94 1012.3 267.1 1007.06 266.08ZM1013.2 253.08C1012.72 254.82 1011.94 256.54 1011.12 257.74H1011.02V257.9L1010.8 258.2L1011.02 258.38V259.64H1004.72L1004.88 260.22H1011.02V262.38H1002.78L1002.94 262.94H1020.72C1020.98 262.94 1021.2 262.84 1021.24 262.62C1020.54 261.98 1019.36 261.06 1019.36 261.06L1018.32 262.38H1012.88V260.22H1019.28C1019.56 260.22 1019.76 260.12 1019.82 259.9C1019.1 259.24 1017.92 258.32 1017.92 258.32L1016.88 259.64H1012.88V258.42C1013.3 258.36 1013.42 258.2 1013.46 257.96L1011.9 257.82C1012.54 257.32 1013.18 256.72 1013.74 256.04H1014.9C1015.38 256.72 1015.86 257.66 1015.92 258.5C1017.28 259.62 1018.74 257.34 1016.12 256.04H1020.66C1020.96 256.04 1021.16 255.94 1021.2 255.72C1020.48 255.06 1019.28 254.14 1019.28 254.14L1018.22 255.46H1014.2C1014.46 255.12 1014.7 254.74 1014.92 254.36C1015.36 254.4 1015.62 254.22 1015.7 254ZM1014.62 263.08V265.22H1003.38L1003.56 265.8H1014.62V269.18C1014.62 269.48 1014.52 269.58 1014.16 269.58C1013.66 269.58 1011.08 269.42 1011.08 269.42V269.7C1012.22 269.86 1012.78 270.08 1013.14 270.38C1013.48 270.68 1013.62 271.12 1013.7 271.72C1016.2 271.48 1016.52 270.68 1016.52 269.3V265.8H1020.36C1020.64 265.8 1020.84 265.7 1020.9 265.48C1020.18 264.8 1018.98 263.88 1018.98 263.88L1017.96 265.22H1016.52V263.84C1016.96 263.78 1017.14 263.62 1017.2 263.32ZM1005.76 253.08C1005.1 255.38 1003.9 257.48 1002.68 258.78L1002.92 258.98C1004.16 258.3 1005.34 257.32 1006.34 256.04H1006.84C1007.28 256.7 1007.66 257.66 1007.62 258.48C1008.88 259.64 1010.46 257.4 1007.78 256.04H1011.64C1011.92 256.04 1012.12 255.94 1012.16 255.72C1011.52 255.1 1010.44 254.22 1010.44 254.22L1009.5 255.46H1006.76C1006.98 255.12 1007.22 254.74 1007.42 254.36C1007.86 254.42 1008.1 254.24 1008.2 254.02ZM1037.12 261.02 1036.86 261.14C1037.88 262.98 1039.18 265.56 1039.48 267.6C1041.44 269.32 1042.94 264.96 1037.12 261.02ZM1030.88 260.86C1030.28 263.66 1029.16 266.42 1027.98 268.18L1028.24 268.38C1030.04 266.94 1031.58 264.72 1032.64 262.04C1033.08 262.06 1033.34 261.88 1033.42 261.64ZM1033.96 257.82V269.06C1033.96 269.34 1033.86 269.46 1033.5 269.46C1033.06 269.46 1030.88 269.32 1030.88 269.32V269.6C1031.86 269.76 1032.36 269.96 1032.7 270.28C1033 270.58 1033.1 271.06 1033.18 271.68C1035.56 271.44 1035.86 270.62 1035.86 269.22V258.6C1036.32 258.54 1036.52 258.36 1036.56 258.06ZM1031.46 253.16C1030.74 256.38 1029.4 259.56 1028 261.58L1028.26 261.76C1029.6 260.7 1030.8 259.28 1031.82 257.58H1038.66C1038.5 258.5 1038.28 259.7 1038.06 260.5L1038.26 260.64C1039.1 259.96 1040.1 258.78 1040.66 257.96C1041.08 257.92 1041.3 257.88 1041.44 257.72L1039.58 255.94L1038.52 257H1032.16C1032.6 256.22 1032.98 255.36 1033.34 254.48C1033.78 254.5 1034.04 254.34 1034.12 254.08ZM1026.76 253.1C1025.88 256.94 1024.18 260.84 1022.5 263.3L1022.76 263.48C1023.62 262.74 1024.44 261.86 1025.2 260.88V271.66H1025.56C1026.3 271.66 1027.1 271.22 1027.12 271.08V259.32C1027.48 259.26 1027.66 259.12 1027.72 258.94L1026.72 258.58C1027.48 257.28 1028.14 255.86 1028.7 254.34C1029.16 254.36 1029.4 254.18 1029.5 253.94ZM1046.16 257.32 1045.94 257.44C1046.62 258.52 1047.34 260.06 1047.42 261.4C1049.16 262.98 1051.06 259.3 1046.16 257.32ZM1056.02 257.3C1055.48 258.92 1054.7 260.66 1054.1 261.72L1054.34 261.9C1055.5 261.14 1056.76 259.96 1057.76 258.7C1058.2 258.76 1058.48 258.6 1058.58 258.38ZM1050.96 253.12V256.42H1043.74L1043.9 257H1050.96V262.3H1042.82L1042.98 262.86H1049.76C1048.28 265.66 1045.68 268.58 1042.56 270.44L1042.76 270.72C1046.18 269.28 1049.02 267.2 1050.96 264.64V271.7H1051.34C1052.06 271.7 1052.9 271.2 1052.9 270.98V263.04C1054.34 266.44 1056.78 268.96 1059.78 270.38C1060.02 269.46 1060.62 268.84 1061.38 268.7L1061.4 268.48C1058.34 267.6 1055.02 265.5 1053.26 262.86H1060.66C1060.94 262.86 1061.14 262.76 1061.2 262.56C1060.34 261.8 1058.94 260.76 1058.94 260.76L1057.7 262.3H1052.9V257H1059.86C1060.14 257 1060.34 256.9 1060.4 256.68C1059.56 255.94 1058.2 254.92 1058.2 254.92L1056.98 256.42H1052.9V253.94C1053.44 253.86 1053.58 253.66 1053.64 253.38ZM1065.62 253.04 1065.44 253.18C1066.36 254.06 1067.4 255.52 1067.7 256.72C1069.6 257.98 1070.98 254.16 1065.62 253.04ZM1066.74 256.06 1064.1 255.8V271.7H1064.44C1065.16 271.7 1065.94 271.26 1065.94 271.06V256.66C1066.52 256.58 1066.68 256.38 1066.74 256.06ZM1069.98 267.26V265.76H1073.84V267.24H1074.12C1074.72 267.24 1075.6 266.88 1075.62 266.74V260.38C1076 260.3 1076.28 260.16 1076.4 260L1074.52 258.56L1073.64 259.52H1070.06L1068.2 258.74V267.84H1068.46C1069.22 267.84 1069.98 267.44 1069.98 267.26ZM1073.84 260.1V265.18H1069.98V260.1ZM1077.8 255.12H1070.1L1070.28 255.7H1078V269.08C1078 269.4 1077.9 269.54 1077.5 269.54C1077.06 269.54 1074.74 269.38 1074.74 269.38V269.68C1075.78 269.82 1076.3 270.04 1076.64 270.34C1076.96 270.62 1077.1 271.1 1077.16 271.7C1079.56 271.46 1079.86 270.64 1079.86 269.3V256.02C1080.26 255.94 1080.56 255.78 1080.7 255.62L1078.7 254.08Z"/><!-- 等你来问 -->
</g>
<path fill="#a8a191" d="M67.59 377.58 67.42 377.75C68.61 378.64 70.23 380.17 70.74 381.39C72.1 382.17 72.68 379.27 67.59 377.58ZM64.19 378.09 62.63 377.35C61.97 378.69 60.51 380.44 58.94 381.49L59.11 381.71C60.98 380.9 62.65 379.49 63.55 378.28C63.94 378.35 64.08 378.26 64.19 378.09ZM70.82 366.91 70.04 367.89H59.71L58.41 367.28V372.13C58.41 375.48 58.24 379.16 56.59 382.16L56.85 382.31C59.33 379.37 59.48 375.17 59.48 372.11V368.4H71.84C72.08 368.4 72.25 368.32 72.29 368.13C71.74 367.6 70.82 366.91 70.82 366.91ZM62.51 376.7V376.21H65.27V380.68C65.27 380.92 65.16 381 64.84 381C64.43 381 62.49 380.86 62.49 380.86V381.12C63.36 381.22 63.84 381.37 64.13 381.56C64.35 381.73 64.47 382.02 64.5 382.36C66.13 382.21 66.35 381.6 66.35 380.71V376.21H69.16V376.87H69.33C69.69 376.87 70.23 376.6 70.25 376.5V371.48C70.59 371.39 70.86 371.28 70.98 371.14L69.6 370.07L68.99 370.77H64.87C65.28 370.34 65.69 369.81 66 369.27C66.35 369.27 66.52 369.12 66.59 368.93L64.92 368.49C64.81 369.29 64.6 370.15 64.42 370.77H62.61L61.42 370.22V377.04H61.61C62.07 377.04 62.51 376.8 62.51 376.7ZM66.35 375.7H62.51V373.69H69.16V375.7ZM69.16 371.28V373.18H62.51V371.28ZM88.93 366.94 87.23 366.75V380.59C87.23 380.85 87.14 380.93 86.84 380.93C86.52 380.93 84.87 380.8 84.87 380.8V381.07C85.58 381.17 86 381.31 86.24 381.51C86.48 381.7 86.57 381.99 86.6 382.33C88.11 382.16 88.3 381.61 88.3 380.69V367.4C88.71 367.35 88.88 367.18 88.93 366.94ZM85.56 369.08 83.9 368.9V378.38H84.1C84.51 378.38 84.95 378.13 84.95 377.99V369.52C85.38 369.47 85.51 369.32 85.56 369.08ZM79.58 367.47 77.95 366.74C77.15 368.88 75.4 371.82 73.39 373.72L73.59 373.93C74.24 373.47 74.85 372.93 75.43 372.36V380.42C75.43 381.34 75.77 381.63 77.22 381.63H79.31C82.28 381.63 82.88 381.44 82.88 380.92C82.88 380.69 82.78 380.56 82.38 380.42L82.33 377.7H82.11C81.89 378.89 81.69 380 81.55 380.32C81.48 380.49 81.4 380.56 81.18 380.57C80.91 380.61 80.24 380.63 79.32 380.63H77.39C76.6 380.63 76.5 380.51 76.5 380.17V373.01H80.28C80.26 375.27 80.22 376.43 80.02 376.65C79.92 376.75 79.8 376.78 79.58 376.78C79.27 376.78 78.42 376.72 77.9 376.67V376.95C78.36 377.02 78.88 377.16 79.09 377.31C79.29 377.48 79.32 377.72 79.32 378.02C79.89 378.02 80.41 377.89 80.73 377.6C81.21 377.14 81.31 375.9 81.31 373.11C81.65 373.08 81.84 373.01 81.94 372.87L80.7 371.87L80.11 372.5H76.71L75.72 372.06C76.98 370.75 78.02 369.27 78.71 368.01C79.99 369.12 81.48 370.75 81.96 372.02C83.34 372.87 83.91 369.98 78.9 367.67C79.32 367.74 79.48 367.65 79.58 367.47ZM91.6 374.42V381.27H91.77C92.3 381.27 92.65 381 92.65 380.92V379.47H96.22V380.61H96.38C96.75 380.61 97.28 380.35 97.29 380.24V375.12C97.62 375.05 97.89 374.91 98.01 374.8L96.66 373.74L96.05 374.42H94.95V370.94H98.14C98.38 370.94 98.55 370.85 98.59 370.66C98.04 370.15 97.16 369.44 97.16 369.44L96.36 370.44H94.95V367.47C95.36 367.4 95.51 367.23 95.56 366.98L93.86 366.81V370.44H90.61L90.75 370.94H93.86V374.42H92.87L91.6 373.86ZM92.65 374.91H96.22V378.99H92.65ZM99.98 366.77C99.55 369.54 98.59 372.25 97.46 374.03L97.72 374.18C98.31 373.59 98.86 372.89 99.33 372.09C99.67 374.17 100.18 376.09 101.03 377.74C99.88 379.47 98.26 380.93 96.05 382.14L96.2 382.36C98.52 381.39 100.25 380.15 101.54 378.64C102.46 380.13 103.72 381.37 105.42 382.33C105.57 381.8 105.96 381.53 106.49 381.46L106.54 381.29C104.64 380.47 103.21 379.3 102.14 377.86C103.48 375.97 104.25 373.69 104.67 371.07H105.98C106.22 371.07 106.39 370.99 106.42 370.8C105.86 370.27 104.96 369.56 104.96 369.56L104.16 370.58H100.11C100.54 369.66 100.9 368.66 101.17 367.59C101.54 367.59 101.75 367.42 101.81 367.21ZM101.53 376.94C100.61 375.39 100.01 373.59 99.61 371.6L99.89 371.07H103.36C103.07 373.25 102.51 375.22 101.53 376.94ZM110.11 370.36V373.93H110.28C110.74 373.93 111.23 373.69 111.23 373.59V373.04H114.91V374.62H109.72L109.86 375.12H114.91V376.7H107.71L107.87 377.18H114.91V378.77H109.62L109.77 379.27H114.91V380.63C114.91 380.92 114.79 381.03 114.41 381.03C114.02 381.03 111.9 380.88 111.9 380.88V381.15C112.8 381.25 113.31 381.39 113.61 381.56C113.89 381.75 113.99 382.02 114.06 382.34C115.81 382.19 116.01 381.58 116.01 380.69V379.27H119.77V380.2H119.94C120.29 380.2 120.84 379.93 120.86 379.81V377.18H123C123.23 377.18 123.41 377.09 123.44 376.92C122.91 376.39 122.03 375.68 122.03 375.68L121.26 376.7H120.86V375.32C121.18 375.25 121.45 375.12 121.57 374.98L120.21 373.96L119.61 374.62H116.01V373.04H119.72V373.64H119.89C120.26 373.64 120.82 373.4 120.84 373.3V371.06C121.16 370.99 121.42 370.85 121.53 370.71L120.16 369.69L119.55 370.36H116.01V369.01H122.79C123.03 369.01 123.22 368.93 123.25 368.74C122.64 368.18 121.67 367.45 121.67 367.45L120.8 368.5H116.01V367.4C116.44 367.35 116.61 367.18 116.64 366.94L114.91 366.75V368.5H107.75L107.9 369.01H114.91V370.36H111.32L110.11 369.83ZM116.01 377.18H119.77V378.77H116.01ZM116.01 376.7V375.12H119.77V376.7ZM114.91 370.85V372.55H111.23V370.85ZM116.01 370.85H119.72V372.55H116.01Z"/><!-- 原创故事 -->
<path fill="#a8a191" d="M244.34 366.94 244.15 367.08C244.93 367.81 245.85 369.05 246.05 370.05C247.31 370.92 248.19 368.25 244.34 366.94ZM252.82 373.08H249.04V370.88H252.82ZM252.82 373.57V375.87H249.04V373.57ZM244.08 373.08V370.88H247.92V373.08ZM244.08 373.57H247.92V375.87H244.08ZM254.76 377.33 253.87 378.43H249.04V376.36H252.82V377.06H252.99C253.38 377.06 253.92 376.78 253.94 376.67V371.07C254.28 371 254.53 370.88 254.65 370.75L253.28 369.69L252.65 370.38H249.89C250.78 369.71 251.73 368.74 252.51 367.79C252.89 367.86 253.11 367.72 253.19 367.55L251.54 366.75C250.9 368.11 250.05 369.52 249.38 370.38H244.18L242.97 369.81V377.21H243.16C243.62 377.21 244.08 376.95 244.08 376.83V376.36H247.92V378.43H240.59L240.75 378.93H247.92V382.36H248.09C248.69 382.36 249.04 382.09 249.04 382V378.93H255.95C256.17 378.93 256.35 378.84 256.4 378.65C255.78 378.09 254.76 377.33 254.76 377.33ZM265.64 367.77C266.06 367.72 266.2 367.55 266.23 367.3L264.43 367.11C264.41 372.31 264.46 377.82 257.7 382.02L257.94 382.31C263.99 379.16 265.21 374.86 265.52 370.75C266.04 375.81 267.57 379.78 272.15 382.31C272.33 381.66 272.76 381.43 273.37 381.36L273.4 381.17C267.52 378.45 266.01 374.03 265.64 367.77ZM284.69 366.67 284.49 366.79C285.08 367.47 285.64 368.61 285.66 369.54C286.72 370.53 287.89 368.11 284.69 366.67ZM279.51 369.69 278.81 370.61H278.32V367.4C278.73 367.35 278.9 367.2 278.95 366.96L277.25 366.75V370.61H274.7L274.83 371.12H277.25V374.69C276.09 375.17 275.12 375.54 274.6 375.73L275.29 377.09C275.46 377 275.6 376.83 275.62 376.63L277.25 375.63V380.51C277.25 380.76 277.16 380.86 276.86 380.86C276.52 380.86 274.85 380.73 274.85 380.73V381C275.58 381.1 275.99 381.24 276.24 381.44C276.46 381.65 276.57 381.95 276.62 382.31C278.15 382.16 278.32 381.56 278.32 380.64V374.95L280.31 373.67L280.22 373.44L280.09 373.49C280.58 373.01 281.04 372.47 281.46 371.89V382.27H281.63C282.14 382.27 282.5 382 282.5 381.92V381.07H290.1C290.34 381.07 290.49 380.98 290.52 380.8C290.01 380.29 289.15 379.61 289.15 379.61L288.4 380.57H286.31V377.45H289.3C289.54 377.45 289.69 377.36 289.74 377.18C289.23 376.67 288.4 375.99 288.4 375.99L287.69 376.94H286.31V374.03H289.3C289.54 374.03 289.69 373.94 289.74 373.76C289.23 373.25 288.4 372.58 288.4 372.58L287.69 373.52H286.31V370.55H289.79C290.03 370.55 290.18 370.46 290.24 370.27C289.71 369.76 288.86 369.08 288.86 369.08L288.11 370.04H282.72L282.64 370C283.08 369.19 283.44 368.39 283.71 367.69C284.13 367.72 284.27 367.62 284.35 367.43L282.57 366.84C282.14 368.78 281.11 371.58 279.75 373.45L279.9 373.57L278.32 374.23V371.12H280.34C280.56 371.12 280.73 371.04 280.78 370.85C280.31 370.34 279.51 369.69 279.51 369.69ZM282.5 380.57V377.45H285.27V380.57ZM282.5 376.94V374.03H285.27V376.94ZM282.5 373.52V370.55H285.27V373.52ZM297.78 367.98V376.21H297.97C298.43 376.21 298.87 375.93 298.87 375.81V375.13H301.44V377.74H297.7L297.83 378.23H301.44V381.22H296.05L296.17 381.71H307.24C307.46 381.71 307.63 381.63 307.68 381.44C307.12 380.9 306.18 380.15 306.18 380.15L305.37 381.22H302.54V378.23H306.47C306.73 378.23 306.89 378.16 306.93 377.97C306.38 377.43 305.5 376.73 305.5 376.73L304.72 377.74H302.54V375.13H305.28V375.87H305.45C305.82 375.87 306.37 375.58 306.38 375.46V368.68C306.73 368.61 307 368.47 307.12 368.33L305.74 367.28L305.11 367.98H298.96L297.78 367.42ZM301.44 371.79V374.64H298.87V371.79ZM302.54 371.79H305.28V374.64H302.54ZM301.44 371.29H298.87V368.45H301.44ZM302.54 371.29V368.45H305.28V371.29ZM291.51 379.2 292.05 380.59C292.22 380.52 292.36 380.37 292.41 380.17C294.64 379.06 296.37 378.08 297.63 377.41L297.55 377.18L295 378.08V373.62H296.97C297.2 373.62 297.36 373.55 297.41 373.37C296.95 372.87 296.17 372.18 296.17 372.18L295.45 373.15H295V369.03H297.2C297.43 369.03 297.61 368.95 297.65 368.76C297.1 368.23 296.2 367.52 296.2 367.52L295.42 368.54H291.71L291.85 369.03H293.89V373.15H291.76L291.9 373.62H293.89V378.45C292.85 378.81 291.99 379.08 291.51 379.2Z"/><!-- 单人推理 -->
<path fill="#a8a191" d="M425.09 381H432.69V379.81H426.02C427.06 378.67 428.06 377.57 428.56 377.06C431.14 374.4 432.18 373.16 432.18 371.6C432.18 369.59 431 368.37 428.73 368.37C426.99 368.37 425.36 369.25 425.09 370.99C425.19 371.33 425.46 371.51 425.79 371.51C426.18 371.51 426.45 371.29 426.62 370.63L427.03 369.15C427.47 368.96 427.89 368.9 428.32 368.9C429.83 368.9 430.73 369.87 430.73 371.56C430.73 373.06 429.98 374.25 428.18 376.43C427.35 377.41 426.21 378.76 425.09 380.08ZM434.22 376.89H442.33V376.02H434.22ZM447.97 381.25C450.11 381.25 451.71 379.57 451.71 377.24C451.71 375.02 450.5 373.52 448.45 373.52C447.32 373.52 446.37 373.96 445.56 374.83C446 371.84 447.97 369.47 451.39 368.74L451.3 368.37C446.81 368.9 444.01 372.35 444.01 376.29C444.01 379.32 445.5 381.25 447.97 381.25ZM445.5 375.37C446.3 374.54 447.1 374.22 447.99 374.22C449.42 374.22 450.3 375.31 450.3 377.35C450.3 379.52 449.28 380.73 447.99 380.73C446.41 380.73 445.47 379.05 445.47 376.14ZM465.53 367.77C465.96 367.72 466.09 367.55 466.13 367.3L464.32 367.11C464.31 372.31 464.36 377.82 457.59 382.02L457.83 382.31C463.88 379.16 465.11 374.86 465.41 370.75C465.94 375.81 467.47 379.78 472.04 382.31C472.23 381.66 472.65 381.43 473.27 381.36L473.3 381.17C467.42 378.45 465.9 374.03 465.53 367.77ZM478.09 370.73 478.23 371.23H486.41C486.64 371.23 486.8 371.14 486.85 370.95C486.31 370.44 485.4 369.75 485.4 369.75L484.6 370.73ZM475.78 368.06V382.33H475.99C476.48 382.33 476.89 382.04 476.89 381.88V368.57H487.89V380.57C487.89 380.9 487.77 381.02 487.39 381.02C486.93 381.02 484.69 380.86 484.69 380.86V381.14C485.66 381.24 486.19 381.37 486.53 381.56C486.8 381.73 486.92 381.99 486.98 382.33C488.77 382.16 488.99 381.56 488.99 380.69V368.79C489.35 368.73 489.6 368.57 489.72 368.45L488.31 367.35L487.73 368.06H476.99L475.78 367.5ZM479.27 373.35V379.42H479.45C479.9 379.42 480.35 379.16 480.35 379.08V377.63H484.32V379.08H484.47C484.84 379.08 485.39 378.81 485.4 378.69V374C485.69 373.94 485.95 373.81 486.03 373.69L484.74 372.7L484.16 373.35H480.42L479.27 372.82ZM480.35 377.14V373.83H484.32V377.14ZM498.8 375.58V377.21H491.66L491.81 377.72H497.41C496.01 379.35 493.84 380.81 491.44 381.76L491.57 382.05C494.53 381.19 497.13 379.79 498.8 377.92V382.33H499.02C499.45 382.33 499.94 382.09 499.94 381.97V377.72H500.06C501.49 379.74 503.87 381.27 506.37 382.07C506.5 381.53 506.88 381.17 507.35 381.08L507.37 380.9C504.94 380.42 502.17 379.25 500.57 377.72H506.67C506.91 377.72 507.08 377.63 507.13 377.45C506.52 376.92 505.55 376.17 505.55 376.17L504.7 377.21H499.94V376.21C500.38 376.14 500.53 375.99 500.57 375.76ZM494.21 370.26V376.32H494.38C494.84 376.32 495.3 376.05 495.3 375.95V375.44H503.41V376H503.59C503.95 376 504.51 375.75 504.53 375.64V370.95C504.87 370.88 505.14 370.75 505.24 370.61L503.87 369.56L503.24 370.26H499.79V368.85H505.72C505.97 368.85 506.13 368.76 506.16 368.57C505.58 368.03 504.63 367.3 504.63 367.3L503.78 368.33H499.79V367.37C500.16 367.3 500.31 367.14 500.35 366.92L498.66 366.75V370.26H495.42L494.21 369.69ZM503.41 370.73V372.55H495.3V370.73ZM495.3 374.93V373.06H503.41V374.93Z"/><!-- 2–6 人同桌 -->
<path fill="#a8a191" d="M948.39 381 947.26 371.51H948.34L949.08 378.53Q949.13 378.96 949.16 379.42Q949.18 379.88 949.2 380.15Q949.22 379.88 949.27 379.42Q949.31 378.96 949.37 378.53L950.3 371.51H951.56L952.42 378.53Q952.47 378.96 952.52 379.42Q952.58 379.88 952.6 380.15Q952.63 379.88 952.66 379.42Q952.69 378.96 952.75 378.53L953.51 371.51H954.54L953.38 381H951.91L951.06 373.85Q951 373.41 950.98 372.99Q950.95 372.56 950.93 372.33Q950.9 372.56 950.87 372.99Q950.85 373.41 950.78 373.85L949.86 381ZM956.1 381V371.51H961.56V372.58H957.26V375.51H961.1V376.55H957.26V379.93H961.56V381ZM963.81 381V371.51H966.5Q967.8 371.51 968.53 372.16Q969.27 372.81 969.27 373.97Q969.27 374.69 968.81 375.28Q968.35 375.87 967.6 376.01V376.05Q968.16 376.11 968.59 376.44Q969.01 376.76 969.25 377.26Q969.49 377.76 969.49 378.36Q969.49 379.58 968.74 380.29Q967.99 381 966.69 381ZM964.95 375.55H966.49Q967.24 375.55 967.68 375.15Q968.11 374.75 968.11 374.06Q968.11 373.37 967.68 372.97Q967.25 372.56 966.5 372.56H964.95ZM964.95 379.95H966.56Q967.38 379.95 967.86 379.51Q968.33 379.08 968.33 378.32Q968.33 377.54 967.86 377.05Q967.38 376.57 966.56 376.57H964.95ZM979.17 382.43 983.79 370.21H985.02L980.41 382.43ZM994.9 381V379.93H997.44V374.92H995.16V373.85H998.61V379.93H1001.01V381ZM997.89 372.56Q997.47 372.56 997.22 372.34Q996.97 372.12 996.97 371.74Q996.97 371.35 997.22 371.13Q997.47 370.9 997.89 370.9Q998.32 370.9 998.57 371.13Q998.82 371.35 998.82 371.74Q998.82 372.12 998.57 372.34Q998.32 372.56 997.89 372.56ZM1005.5 381.13Q1004.23 381.13 1003.48 380.39Q1002.74 379.65 1002.74 378.27V374.24Q1002.74 372.86 1003.48 372.12Q1004.23 371.38 1005.5 371.38Q1006.77 371.38 1007.51 372.12Q1008.26 372.86 1008.26 374.23V378.27Q1008.26 379.65 1007.51 380.39Q1006.77 381.13 1005.5 381.13ZM1005.5 380.08Q1006.27 380.08 1006.68 379.64Q1007.09 379.21 1007.09 378.4V374.11Q1007.09 373.3 1006.68 372.87Q1006.27 372.43 1005.5 372.43Q1004.75 372.43 1004.33 372.87Q1003.91 373.3 1003.91 374.11V378.4Q1003.91 379.21 1004.33 379.64Q1004.75 380.08 1005.5 380.08ZM1013.35 381.13Q1011.97 381.13 1011.15 380.4Q1010.34 379.67 1010.34 378.4H1011.51Q1011.51 379.19 1012.01 379.64Q1012.52 380.09 1013.35 380.09Q1014.16 380.09 1014.64 379.62Q1015.12 379.15 1015.12 378.4Q1015.12 377.83 1014.81 377.41Q1014.51 376.98 1013.94 376.83L1012.49 376.42Q1011.6 376.16 1011.08 375.49Q1010.57 374.82 1010.57 373.92Q1010.57 373.16 1010.91 372.59Q1011.25 372.02 1011.86 371.7Q1012.47 371.38 1013.26 371.38Q1014.07 371.38 1014.68 371.7Q1015.3 372.02 1015.65 372.58Q1016 373.15 1016 373.89H1014.83Q1014.83 373.24 1014.39 372.83Q1013.95 372.42 1013.26 372.42Q1012.57 372.42 1012.14 372.83Q1011.71 373.24 1011.71 373.89Q1011.71 374.41 1011.99 374.78Q1012.27 375.15 1012.78 375.29L1014.26 375.71Q1015.21 375.97 1015.74 376.69Q1016.26 377.41 1016.26 378.4Q1016.26 379.65 1015.47 380.39Q1014.68 381.13 1013.35 381.13ZM1025.97 382.43 1030.59 370.21H1031.82L1027.21 382.43ZM1041.25 381 1043.72 371.51H1045.29L1047.75 381H1046.57L1045.94 378.48H1043.07L1042.45 381ZM1043.3 377.49H1045.7L1044.97 374.56Q1044.76 373.73 1044.64 373.17Q1044.53 372.62 1044.5 372.45Q1044.47 372.62 1044.36 373.17Q1044.24 373.73 1044.03 374.55ZM1049.57 381V371.51H1051.13L1054.03 379.63Q1054 379.31 1053.97 378.84Q1053.94 378.36 1053.92 377.83Q1053.9 377.31 1053.9 376.84V371.51H1055.03V381H1053.47L1050.58 372.88Q1050.61 373.19 1050.64 373.66Q1050.66 374.14 1050.68 374.66Q1050.7 375.19 1050.7 375.67V381ZM1057.4 381V371.51H1059.85Q1060.78 371.51 1061.45 371.86Q1062.11 372.21 1062.49 372.85Q1062.86 373.49 1062.86 374.36V378.14Q1062.86 379.01 1062.49 379.65Q1062.11 380.3 1061.45 380.65Q1060.78 381 1059.85 381ZM1058.57 379.96H1059.85Q1060.71 379.96 1061.2 379.48Q1061.69 379 1061.69 378.14V374.36Q1061.69 373.51 1061.2 373.03Q1060.71 372.55 1059.85 372.55H1058.57ZM1065.21 381V371.51H1068.13Q1068.98 371.51 1069.62 371.85Q1070.25 372.2 1070.6 372.81Q1070.95 373.42 1070.95 374.24Q1070.95 375.2 1070.46 375.89Q1069.97 376.58 1069.15 376.85L1071.08 381H1069.8L1067.94 376.97H1066.37V381ZM1066.37 375.92H1068.13Q1068.86 375.92 1069.3 375.46Q1069.75 374.99 1069.75 374.24Q1069.75 373.47 1069.3 373.02Q1068.86 372.56 1068.13 372.56H1066.37ZM1075.7 381.13Q1074.43 381.13 1073.68 380.39Q1072.94 379.65 1072.94 378.27V374.24Q1072.94 372.86 1073.68 372.12Q1074.43 371.38 1075.7 371.38Q1076.97 371.38 1077.71 372.12Q1078.46 372.86 1078.46 374.23V378.27Q1078.46 379.65 1077.71 380.39Q1076.97 381.13 1075.7 381.13ZM1075.7 380.08Q1076.47 380.08 1076.88 379.64Q1077.29 379.21 1077.29 378.4V374.11Q1077.29 373.3 1076.88 372.87Q1076.47 372.43 1075.7 372.43Q1074.95 372.43 1074.53 372.87Q1074.11 373.3 1074.11 374.11V378.4Q1074.11 379.21 1074.53 379.64Q1074.95 380.08 1075.7 380.08ZM1080.96 381V379.93H1082.9V372.58H1080.96V371.51H1086.03V372.58H1084.1V379.93H1086.03V381ZM1088.6 381V371.51H1091.05Q1091.98 371.51 1092.65 371.86Q1093.31 372.21 1093.69 372.85Q1094.06 373.49 1094.06 374.36V378.14Q1094.06 379.01 1093.69 379.65Q1093.31 380.3 1092.65 380.65Q1091.98 381 1091.05 381ZM1089.77 379.96H1091.05Q1091.91 379.96 1092.4 379.48Q1092.89 379 1092.89 378.14V374.36Q1092.89 373.51 1092.4 373.03Q1091.91 372.55 1091.05 372.55H1089.77Z"/><!-- WEB / iOS / ANDROID -->
<path d="M198 366v17M382 366v17" stroke="#49453b"/>
</svg>